<?xml version="1.0" standalone="no"?>
<!DOCTYPE svg PUBLIC "-//W3C//DTD SVG 20010904//EN"
 "http://www.w3.org/TR/2001/REC-SVG-20010904/DTD/svg10.dtd">
<svg version="1.0" xmlns="http://www.w3.org/2000/svg"
 width="1024.000000pt" height="1024.000000pt" viewBox="0 0 1024.000000 1024.000000"
 preserveAspectRatio="xMidYMid meet">

<g transform="translate(0.000000,1024.000000) scale(0.100000,-0.100000)"
fill="#000000" stroke="none">
<path d="M0 5120 l0 -5120 5120 0 5120 0 0 5120 0 5120 -5120 0 -5120 0 0
-5120z m5460 4910 c393 -26 782 -98 1165 -215 66 -20 135 -43 153 -51 18 -9
49 -18 68 -21 18 -3 34 -10 34 -14 0 -5 5 -9 11 -9 19 0 316 -128 434 -187
166 -84 344 -186 505 -291 80 -52 151 -97 159 -100 8 -3 29 -20 48 -39 19 -18
40 -33 46 -33 7 0 36 -22 65 -49 30 -28 59 -48 67 -45 7 3 21 -5 31 -18 11
-13 82 -81 159 -152 247 -227 487 -485 632 -678 36 -49 70 -85 76 -81 6 4 7 1
3 -6 -5 -7 -2 -18 6 -24 21 -17 238 -350 279 -427 19 -36 37 -67 41 -70 4 -3
19 -30 33 -60 14 -30 42 -86 62 -125 202 -395 388 -963 458 -1396 78 -486 86
-996 24 -1478 -102 -795 -407 -1563 -886 -2234 -118 -167 -372 -469 -492 -588
-136 -134 -370 -337 -511 -444 -131 -99 -172 -136 -166 -152 3 -7 1 -13 -3
-13 -5 0 -11 5 -13 12 -6 16 -86 -40 -94 -66 -5 -14 -8 -15 -14 -6 -6 10 -20
5 -56 -18 -228 -145 -564 -318 -803 -414 -500 -199 -894 -287 -1599 -358 -126
-12 -412 -13 -444 -1 -13 5 -68 11 -123 15 -55 4 -124 9 -152 12 -46 6 -53 4
-53 -12 0 -16 -2 -15 -23 4 -17 17 -52 25 -162 42 -239 36 -530 101 -694 156
-32 11 -46 12 -51 4 -5 -8 -9 -7 -13 4 -7 18 -101 48 -123 39 -8 -3 -20 1 -27
10 -7 8 -83 43 -171 78 -306 120 -648 302 -936 497 -897 608 -1564 1485 -1909
2509 -195 579 -285 1228 -252 1818 13 240 22 314 68 600 46 287 48 295 72 395
11 47 25 114 31 149 6 35 20 83 30 107 11 24 20 61 20 83 0 22 4 50 9 63 5 13
22 57 37 98 26 74 34 95 69 178 19 44 33 53 17 11 -5 -13 -17 -49 -27 -79 -9
-30 -23 -68 -30 -85 -19 -45 -27 -88 -16 -81 5 4 13 21 16 39 4 17 11 37 15
42 3 6 17 37 30 70 12 33 29 76 38 95 9 19 17 55 17 80 2 33 19 78 64 170 68
137 77 152 103 192 10 15 18 34 18 42 0 8 3 16 8 18 8 3 52 64 52 73 0 3 16
27 35 54 19 26 35 53 35 60 0 6 5 11 10 11 6 0 10 9 10 19 0 11 4 22 9 25 4 3
37 47 71 98 35 51 72 105 84 119 12 14 28 36 36 48 8 11 20 21 27 21 7 0 13 9
13 19 0 11 8 22 19 26 10 3 21 19 25 35 3 18 12 30 21 30 8 0 15 9 15 20 0 12
10 25 25 32 14 6 25 16 25 22 0 12 202 220 402 413 70 66 125 124 122 127 -2
3 -1 4 2 1 8 -6 94 64 94 77 0 14 27 38 42 38 8 0 27 13 43 30 16 16 46 42 67
56 20 15 35 31 32 36 -3 5 2 8 12 6 13 -2 18 2 16 15 -2 10 3 17 13 17 8 0 15
5 15 10 0 6 5 10 12 10 6 0 26 11 44 25 18 14 38 25 43 25 21 0 121 73 122 89
0 9 3 11 5 4 3 -7 35 8 85 40 44 29 87 57 97 62 9 6 24 14 32 20 8 5 20 10 25
10 6 1 9 7 7 14 -1 7 2 10 7 7 5 -3 51 18 103 47 153 87 352 180 557 263 74
30 138 59 141 65 4 5 24 12 46 14 21 2 52 8 67 14 54 21 403 119 447 126 25 4
56 13 70 20 14 7 30 10 36 8 10 -3 262 40 294 51 52 17 722 59 815 50 22 -2
110 -8 195 -14z m-3511 -1163 c-2 -1 -15 -11 -29 -22 l-25 -20 19 23 c11 12
24 22 29 22 6 0 8 -1 6 -3z"/>
<path d="M5138 9813 c34 -2 88 -2 120 0 31 2 3 3 -63 3 -66 0 -92 -1 -57 -3z"/>
<path d="M4585 9770 c-8 -13 15 -13 35 0 12 8 11 10 -7 10 -12 0 -25 -4 -28
-10z"/>
<path d="M4658 9773 c12 -2 30 -2 40 0 9 3 -1 5 -23 4 -22 0 -30 -2 -17 -4z"/>
<path d="M5738 9773 c6 -2 18 -2 25 0 6 3 1 5 -13 5 -14 0 -19 -2 -12 -5z"/>
<path d="M5905 9749 c22 -4 54 -8 70 -8 26 0 27 2 10 9 -11 5 -42 8 -70 8
l-50 0 40 -9z"/>
<path d="M4335 9740 c-16 -4 13 -5 65 -2 52 3 97 6 99 8 8 7 -134 2 -164 -6z"/>
<path d="M4785 9735 c-77 -6 -138 -13 -135 -14 15 -8 270 -12 270 -5 0 10 664
0 715 -10 17 -3 102 -15 190 -26 156 -20 195 -26 400 -69 230 -47 418 -95 408
-104 -3 -4 9 -7 28 -8 28 0 30 -2 14 -9 -17 -7 -16 -9 10 -9 50 -1 62 14 23
29 -91 33 -277 82 -403 105 -49 9 -124 25 -165 35 -82 20 -203 41 -375 65
-231 32 -724 43 -980 20z"/>
<path d="M4260 9720 c0 -5 4 -10 9 -10 6 0 13 5 16 10 3 6 -1 10 -9 10 -9 0
-16 -4 -16 -10z"/>
<path d="M6188 9713 c6 -2 18 -2 25 0 6 3 1 5 -13 5 -14 0 -19 -2 -12 -5z"/>
<path d="M4555 9700 c-13 -5 -14 -9 -5 -9 8 0 24 4 35 9 13 5 14 9 5 9 -8 0
-24 -4 -35 -9z"/>
<path d="M4103 9688 c-29 -5 -53 -14 -53 -19 0 -9 15 -7 78 8 15 3 30 6 35 5
4 -1 7 3 7 8 0 6 -3 9 -7 9 -5 -1 -32 -6 -60 -11z"/>
<path d="M4435 9683 l-50 -12 70 6 c78 6 87 9 53 15 -13 2 -45 -2 -73 -9z"/>
<path d="M5178 9691 c-131 -12 -80 -23 102 -21 102 2 192 0 200 -3 8 -3 42 -8
75 -11 171 -15 237 -18 262 -10 21 6 3 10 -77 15 -58 5 -136 13 -175 19 -85
14 -295 20 -387 11z"/>
<path d="M6281 9691 c-10 -6 2 -13 41 -21 61 -14 99 -9 58 8 -43 17 -84 22
-99 13z"/>
<path d="M4350 9660 c-23 -7 -23 -8 -3 -9 12 -1 25 4 28 9 3 6 5 10 3 9 -2 -1
-14 -5 -28 -9z"/>
<path d="M4600 9659 c-19 -4 -60 -13 -90 -18 -124 -24 -210 -43 -210 -48 0 -7
97 7 160 24 30 8 78 18 105 23 28 5 68 13 90 18 35 8 36 10 10 10 -16 0 -46
-4 -65 -9z"/>
<path d="M4843 9663 c42 -2 112 -2 155 0 42 1 7 3 -78 3 -85 0 -120 -2 -77 -3z"/>
<path d="M3922 9649 c-55 -9 -255 -73 -281 -90 -13 -8 -12 -9 4 -5 57 14 111
30 120 37 6 4 33 10 60 14 47 7 165 43 165 51 0 2 -3 3 -7 3 -5 -1 -32 -5 -61
-10z"/>
<path d="M5860 9632 c0 -6 15 -12 33 -15 17 -3 64 -10 102 -16 39 -6 99 -18
135 -26 36 -9 94 -22 130 -30 169 -36 247 -57 282 -75 21 -11 45 -20 53 -20 8
0 23 -7 33 -16 37 -32 327 -112 368 -101 15 4 13 5 -6 6 -15 0 -30 5 -35 10
-6 5 -39 17 -74 26 -35 9 -100 30 -145 46 -44 16 -88 29 -97 29 -10 0 -19 4
-21 8 -6 15 -154 71 -213 81 -162 26 -203 34 -233 47 -18 8 -42 14 -53 14 -12
0 -47 6 -78 14 -77 19 -181 29 -181 18z"/>
<path d="M4730 9620 c-210 -12 -420 -55 -420 -86 0 -8 4 -14 10 -14 5 0 7 -7
4 -15 -7 -17 25 -21 42 -6 10 10 125 27 289 41 61 6 117 13 125 16 8 3 128 9
265 13 268 8 468 1 660 -24 66 -9 156 -20 200 -25 44 -5 114 -16 155 -25 41
-9 93 -20 115 -25 22 -4 54 -13 70 -18 29 -10 29 -10 5 -11 -15 -1 -30 3 -35
8 -6 5 -48 14 -95 20 -47 6 -105 15 -130 21 -46 10 -226 34 -380 50 -169 18
-744 11 -850 -10 -25 -5 -92 -14 -150 -20 -58 -6 -142 -18 -187 -27 -69 -14
-83 -20 -83 -36 0 -18 5 -19 68 -13 37 4 81 11 97 16 17 5 95 14 175 19 80 6
159 14 175 20 90 30 673 38 800 11 91 -19 156 -29 255 -40 58 -6 137 -20 175
-30 39 -10 115 -28 170 -40 55 -12 129 -30 165 -40 138 -38 496 -173 615 -232
113 -56 327 -169 364 -193 22 -14 43 -25 46 -25 12 0 225 -138 315 -203 52
-39 136 -108 186 -156 113 -106 184 -167 250 -214 41 -30 217 -210 246 -252 4
-5 25 -31 48 -57 22 -25 37 -49 32 -52 -5 -3 -33 25 -63 61 -30 37 -72 86 -94
108 -22 22 -58 62 -80 89 -22 26 -62 64 -90 83 -60 43 -134 106 -224 189 -61
57 -132 119 -156 136 -5 4 -33 25 -60 45 -28 21 -58 43 -67 48 -8 6 -42 28
-74 51 -33 23 -80 53 -106 67 -26 15 -83 46 -125 70 -135 76 -414 213 -528
260 -289 116 -683 224 -1015 277 -41 7 -82 15 -90 18 -8 3 -31 7 -50 8 -19 1
-105 7 -190 13 -190 14 -590 5 -670 -15 -30 -8 -75 -14 -101 -14 -26 0 -69 -4
-96 -9 -26 -5 -77 -15 -113 -21 -36 -6 -91 -18 -123 -27 -47 -14 -57 -21 -54
-35 3 -10 1 -21 -4 -24 -9 -5 -13 9 -10 34 2 13 -25 17 -33 4 -3 -5 -19 -9
-36 -10 -44 -1 -269 -55 -302 -73 -10 -5 -24 -9 -32 -9 -8 0 -70 -18 -137 -40
-68 -22 -128 -40 -135 -40 -7 0 -54 -13 -104 -30 -50 -16 -100 -30 -110 -30
-10 0 -22 -4 -25 -10 -3 -5 -19 -10 -34 -10 -15 0 -31 -4 -36 -9 -6 -4 -23
-11 -40 -15 -58 -14 5 19 75 38 36 10 74 22 85 26 97 37 85 33 395 129 168 53
177 55 275 76 115 25 160 41 163 58 5 23 -18 26 -88 11 -36 -8 -90 -19 -120
-25 -30 -5 -64 -14 -75 -18 -11 -5 -49 -16 -85 -25 -64 -17 -191 -60 -220 -75
-9 -5 -31 -12 -50 -16 -125 -25 -387 -131 -530 -213 -98 -56 -240 -158 -240
-173 0 -5 -6 -6 -14 -3 -7 3 -16 -2 -19 -10 -4 -9 -12 -16 -19 -16 -17 -1 -68
-46 -68 -60 0 -15 7 -13 48 15 20 14 40 25 45 25 4 0 33 16 63 35 30 19 56 35
58 35 2 0 34 17 72 38 38 21 85 44 104 51 19 8 59 25 88 37 77 35 199 80 267
99 33 9 70 21 81 25 12 5 43 11 70 15 27 4 57 9 67 12 9 2 17 0 17 -4 0 -5
-28 -15 -62 -22 -194 -41 -485 -155 -688 -268 -162 -91 -219 -131 -220 -155 0
-21 11 -23 29 -5 11 10 11 8 2 -10 -6 -13 -8 -23 -3 -23 4 0 56 25 116 55 59
30 113 55 121 55 7 0 16 5 18 10 3 6 4 5 3 -2 -2 -12 -4 -13 -71 -46 -80 -39
-123 -65 -161 -96 -62 -49 -54 -102 9 -62 12 8 33 17 47 21 17 5 8 -5 -27 -31
-56 -41 -67 -60 -30 -48 22 7 22 6 3 -15 -20 -22 -12 -28 14 -11 8 5 15 17 15
27 0 11 7 17 17 17 10 -1 15 2 13 7 -3 4 4 13 16 19 15 8 19 9 15 1 -4 -6 -2
-11 3 -11 6 0 11 5 11 10 0 6 20 23 45 39 24 15 57 41 73 57 16 16 41 39 56
52 18 14 26 28 22 38 -4 11 -2 15 6 11 7 -2 20 3 28 11 13 14 12 15 -3 9 -21
-8 -22 6 -2 23 8 7 27 10 43 7 30 -6 117 22 226 72 38 17 74 30 79 28 5 -1
-24 -18 -64 -36 -176 -79 -229 -105 -229 -110 0 -4 13 -12 30 -18 30 -11 41
-10 141 19 20 6 44 8 55 6 14 -4 7 -10 -29 -26 -27 -12 -56 -22 -66 -22 -9 0
-26 -7 -38 -15 -19 -13 -21 -20 -12 -42 11 -31 5 -41 -15 -24 -12 10 -21 10
-43 -2 -15 -9 -48 -23 -73 -31 -76 -28 -159 -70 -160 -82 0 -14 -64 -64 -81
-64 -7 0 -2 11 11 25 13 14 30 25 39 25 11 0 12 3 4 11 -9 9 -24 2 -61 -25
-66 -48 -74 -59 -77 -105 -4 -51 -21 -81 -46 -81 -11 0 -22 -7 -25 -15 -10
-25 -24 -17 -24 15 0 34 1 34 -34 20 -14 -5 -26 -16 -26 -25 0 -8 -5 -15 -11
-15 -9 0 -83 -47 -114 -72 -5 -5 -32 -23 -60 -40 -62 -39 -203 -181 -211 -212
-3 -12 -17 -30 -32 -39 -15 -9 -47 -35 -70 -57 -42 -38 -43 -40 -28 -62 18
-25 21 -68 6 -68 -5 0 -10 7 -10 15 0 8 -4 15 -10 15 -5 0 -10 6 -10 14 0 8
-5 18 -12 22 -11 7 -17 2 -93 -90 -22 -27 -45 -54 -50 -60 -6 -6 -16 -23 -22
-38 -7 -16 -17 -28 -23 -28 -12 0 -13 17 -1 24 5 3 12 17 15 31 4 14 15 34 26
45 11 11 22 32 26 47 4 16 16 38 27 51 11 12 16 22 11 22 -13 0 -46 -38 -70
-81 -10 -18 -24 -39 -30 -46 -7 -7 -22 -33 -34 -58 l-22 -46 27 -25 c32 -30
29 -39 -9 -24 -40 15 -44 13 -51 -22 -4 -18 -12 -38 -17 -45 -6 -8 -2 -15 12
-23 16 -8 19 -15 11 -23 -7 -7 -15 -6 -27 3 -13 12 -17 12 -24 0 -5 -8 -22
-32 -39 -54 -17 -21 -31 -45 -31 -52 0 -8 -7 -14 -16 -14 -10 0 -14 -5 -10
-15 3 -9 -3 -32 -14 -53 l-20 -37 0 33 c0 17 -4 32 -10 32 -5 0 -10 -9 -10
-20 0 -13 -5 -18 -15 -14 -12 5 -15 -2 -15 -32 -1 -35 -2 -37 -14 -21 -14 17
-15 17 -21 -4 -4 -12 -15 -31 -25 -41 -10 -11 -16 -28 -13 -39 4 -15 2 -18
-11 -13 -9 3 -16 1 -16 -5 0 -7 -9 -21 -20 -33 -11 -12 -20 -28 -20 -35 0 -7
-3 -13 -8 -13 -4 0 -13 -15 -21 -32 -8 -18 -21 -42 -31 -53 -9 -11 -23 -35
-30 -52 -7 -18 -17 -33 -22 -33 -5 0 -6 -17 -3 -37 4 -27 3 -32 -4 -18 -8 18
-10 16 -26 -20 -39 -88 -77 -171 -91 -198 -7 -16 -14 -35 -14 -43 0 -8 -9 -31
-20 -51 -11 -21 -20 -50 -20 -65 0 -15 -5 -39 -11 -55 -13 -32 -29 -105 -32
-145 -3 -34 -17 -49 -17 -17 -1 39 -17 2 -30 -67 -25 -132 -26 -121 13 -128
19 -4 40 -13 47 -21 11 -13 7 -15 -25 -15 -29 0 -36 -3 -31 -15 3 -9 0 -15 -8
-15 -26 0 -45 -49 -57 -140 -6 -50 -9 -94 -6 -96 3 -3 12 2 20 11 25 25 28 17
6 -20 -24 -40 -33 -39 -44 7 -7 31 -8 30 -18 -27 -5 -33 -10 -91 -11 -130 -1
-65 1 -70 19 -67 19 2 19 2 2 -11 -9 -8 -17 -19 -17 -24 0 -6 23 -35 50 -65
75 -83 141 -190 127 -204 -2 -3 -10 10 -18 28 -18 45 -53 95 -100 146 -45 47
-46 47 -74 26 -18 -14 -20 -28 -22 -172 -1 -87 -3 -162 -5 -168 -3 -9 4 -14
23 -14 8 0 8 5 -1 15 -11 13 -8 15 14 15 29 0 33 -9 14 -29 -10 -11 -10 -14
-1 -18 9 -3 11 -17 7 -43 -4 -22 -4 -50 0 -63 9 -39 87 -64 100 -32 3 8 11 15
17 15 8 0 6 -7 -4 -18 -10 -10 -14 -22 -10 -25 3 -4 -19 -7 -50 -7 -44 0 -57
-3 -57 -15 0 -20 -29 -19 -37 1 -3 8 0 26 7 38 9 18 9 28 0 46 -8 15 -9 25 -2
32 6 6 8 17 5 24 -3 8 1 14 11 14 14 0 15 4 6 20 -13 24 -30 26 -30 5 0 -8 -5
-15 -11 -15 -8 0 -9 -14 -5 -42 3 -24 6 -76 7 -116 2 -58 5 -75 18 -80 9 -3
24 -16 34 -29 10 -13 26 -23 36 -23 9 0 22 -5 28 -11 8 -8 13 -8 17 0 4 6 24
11 44 10 l37 -1 -40 -13 -40 -12 1 -67 c2 -66 11 -143 21 -175 4 -13 3 -14 -5
-2 -9 13 -14 11 -30 -10 -11 -13 -23 -21 -27 -17 -4 3 3 16 14 27 18 18 20 30
17 99 -4 77 -19 122 -42 122 -19 0 -24 -12 -13 -32 16 -30 5 -31 -25 -3 -15
14 -28 25 -30 25 -8 0 17 -141 32 -174 9 -22 17 -44 17 -50 3 -38 20 -87 39
-111 l23 -28 21 21 c32 32 36 27 11 -17 l-22 -39 23 -31 c17 -24 27 -30 43
-26 22 6 22 6 3 -9 -11 -9 -23 -16 -27 -16 -4 0 -5 -10 -2 -21 4 -16 2 -20 -8
-17 -8 3 -14 16 -14 29 0 24 -20 59 -41 72 -9 5 -9 -3 -2 -31 5 -20 13 -54 17
-75 5 -21 14 -44 20 -50 6 -6 11 -23 11 -38 0 -15 4 -30 9 -33 5 -3 12 -22 16
-42 3 -21 22 -84 41 -141 19 -56 34 -110 34 -118 0 -8 4 -23 9 -33 29 -57 51
-111 51 -126 0 -9 12 -21 26 -26 35 -14 36 -13 24 9 -5 11 -10 28 -10 38 1 13
6 9 18 -12 11 -21 23 -30 35 -27 15 3 18 0 13 -16 -5 -13 -1 -22 11 -26 10 -4
19 -6 21 -4 2 2 8 -5 13 -14 12 -21 29 -24 29 -5 1 19 48 49 73 44 20 -3 19
-5 -11 -16 -18 -7 -37 -22 -43 -32 -5 -10 -14 -19 -20 -19 -5 0 -20 -12 -32
-26 l-23 -26 21 -44 c17 -37 24 -43 43 -39 12 3 22 1 22 -5 0 -5 -4 -10 -9
-10 -15 0 -22 -30 -11 -48 6 -11 9 -12 10 -4 0 7 4 11 9 8 5 -3 7 -14 4 -24
-3 -12 4 -25 22 -36 14 -9 23 -21 20 -26 -29 -47 84 5 125 57 11 14 23 23 26
20 3 -3 -25 -38 -64 -78 l-70 -72 26 -53 c16 -32 32 -52 40 -49 6 2 12 0 12
-5 0 -6 7 -10 15 -10 20 0 19 -17 -2 -28 -14 -9 -14 -10 6 -17 16 -5 27 -1 40
14 10 11 21 18 24 14 4 -3 16 2 27 12 23 21 25 20 34 -17 6 -25 5 -26 -36 -25
-61 2 -68 -17 -30 -85 19 -33 29 -62 26 -75 -4 -13 0 -22 12 -27 14 -5 15 -4
4 9 -7 9 -10 19 -6 22 4 4 10 3 14 -3 28 -43 88 -114 97 -114 5 0 18 -14 28
-32 14 -24 20 -29 27 -18 5 8 8 1 7 -21 -1 -36 53 -129 74 -129 6 0 8 -4 5 -8
-8 -13 30 -55 43 -48 6 4 9 12 6 17 -8 12 -1 11 29 -2 20 -9 29 -9 41 1 25 21
30 2 7 -23 -12 -13 -22 -28 -22 -33 0 -14 206 -223 248 -253 33 -23 35 -23 68
-8 19 9 34 21 34 27 0 5 14 17 31 26 l32 16 -7 -27 c-8 -31 8 -57 30 -48 8 3
14 0 14 -6 0 -11 -24 -15 -68 -11 -12 1 -25 -5 -28 -13 -6 -17 24 -57 42 -57
15 0 57 -51 49 -58 -3 -3 -19 4 -35 16 -31 24 -50 28 -50 12 0 -5 6 -10 13
-10 6 0 25 -16 40 -35 15 -19 34 -35 41 -35 7 0 21 -9 32 -21 12 -14 25 -18
41 -14 16 4 23 1 23 -9 0 -8 10 -18 21 -21 16 -5 27 0 44 21 l22 28 7 -31 c4
-19 15 -35 27 -38 10 -4 19 -11 19 -18 0 -8 3 -8 12 1 20 20 28 13 16 -13 -14
-31 -19 -31 -56 0 -36 30 -47 32 -30 5 7 -11 18 -20 25 -20 7 0 16 -6 20 -13
12 -20 43 -29 43 -12 0 27 19 25 36 -5 10 -16 24 -30 32 -30 7 0 24 -11 37
-24 24 -24 24 -24 46 -5 12 10 28 19 34 19 7 0 24 10 39 21 21 17 30 19 39 10
9 -9 3 -19 -27 -44 -34 -29 -37 -34 -22 -46 9 -7 13 -18 10 -23 -3 -5 -12 -1
-19 9 -10 14 -16 15 -25 6 -17 -16 21 -35 57 -28 16 3 22 2 16 -1 -17 -8 -17
-24 0 -24 8 0 57 -24 110 -52 78 -43 92 -54 75 -58 -21 -5 -20 -6 7 -17 17 -7
40 -15 53 -18 12 -3 22 -10 22 -15 0 -5 29 -7 64 -4 38 2 67 0 71 -6 4 -6 -7
-10 -26 -10 -44 0 -24 -22 22 -24 18 -1 34 -7 37 -14 4 -14 62 -16 62 -2 0 6
18 10 40 10 34 0 40 3 40 20 0 20 0 20 29 -1 27 -20 80 -24 130 -8 29 9 19
-17 -11 -29 -18 -8 -42 -18 -53 -22 -11 -5 -30 -12 -43 -15 -23 -7 -26 -32 -3
-27 6 1 48 -16 92 -38 45 -22 90 -40 100 -40 11 0 30 -7 42 -15 13 -8 44 -14
77 -13 57 2 101 -5 121 -18 27 -16 69 -12 84 9 8 12 15 18 15 13 0 -5 12 -1
26 9 14 9 28 14 32 11 7 -8 -11 -27 -29 -30 -8 -1 -23 -7 -34 -13 l-20 -12 20
-6 c11 -4 31 -11 44 -16 16 -7 28 -6 35 1 5 5 26 10 46 10 l35 -1 -30 -13
c-16 -6 -25 -15 -19 -19 13 -8 87 18 92 32 4 12 32 16 32 5 0 -4 -8 -13 -17
-20 -13 -9 -15 -16 -7 -24 8 -8 15 -8 25 2 25 24 70 39 84 28 18 -15 25 -1 14
27 -12 33 -4 41 19 20 23 -21 31 -21 46 -3 15 19 126 59 126 45 0 -15 -26 -39
-43 -39 -26 0 -80 -33 -84 -51 -3 -11 -12 -19 -19 -19 -17 0 -18 -16 -1 -23
21 -8 32 -7 33 3 1 6 2 12 3 14 0 3 14 0 30 -5 21 -8 36 -7 51 1 16 9 25 9 33
1 8 -8 6 -11 -7 -11 -12 0 -16 -5 -12 -16 3 -9 6 -18 6 -20 0 -2 5 -4 10 -4 6
0 10 7 10 15 0 8 7 15 15 15 8 0 15 5 15 10 0 6 7 10 15 10 17 0 20 -16 5 -25
-22 -13 -9 -27 21 -23 18 3 52 1 77 -4 30 -5 49 -4 59 3 7 7 30 9 54 6 32 -4
42 -2 52 14 16 25 40 25 32 0 -4 -14 0 -23 14 -30 29 -16 41 -13 41 9 0 21 15
27 25 10 15 -24 35 -9 36 28 l0 37 12 -35 12 -35 94 -3 c78 -2 96 0 104 13 7
12 12 13 22 5 20 -17 140 -7 174 14 8 5 16 4 21 -3 10 -17 63 -3 56 15 -7 18
-1 18 30 -2 17 -12 38 -15 68 -12 46 6 106 43 106 66 0 9 7 11 22 7 15 -6 20
-4 16 6 -4 11 6 14 40 15 40 1 50 6 84 42 45 49 58 55 29 13 -21 -30 -27 -66
-13 -75 5 -3 35 -1 68 5 153 24 145 19 118 70 -8 17 -14 33 -11 35 7 7 42 -10
43 -21 4 -33 18 -55 33 -51 9 3 33 8 54 12 36 6 47 17 27 29 -5 3 -10 1 -10
-4 0 -6 -7 -11 -15 -11 -8 0 -15 5 -15 10 0 6 5 10 11 10 6 0 9 7 5 15 -9 25
21 17 43 -11 17 -22 21 -23 21 -8 0 10 -8 27 -19 38 -10 12 -22 32 -25 46 -6
21 -1 19 31 -18 36 -39 73 -56 73 -32 0 6 9 10 20 10 11 0 19 3 19 8 -3 18 2
26 10 13 7 -11 13 -10 35 4 14 10 26 14 26 10 0 -4 6 -3 13 3 7 6 27 9 44 7
23 -3 31 0 27 9 -3 9 4 12 24 11 16 -1 38 4 48 12 10 7 15 13 11 13 -4 0 8 14
28 31 27 24 39 29 48 20 19 -19 37 -13 34 11 -2 19 4 24 31 26 21 2 32 9 32
19 0 11 7 14 28 9 15 -3 21 -3 15 0 -17 7 -17 34 0 34 7 0 18 -9 25 -20 12
-20 32 -27 32 -12 0 4 -12 20 -26 36 -23 26 -27 28 -36 13 -5 -9 -15 -17 -22
-17 -7 0 -18 -11 -26 -24 -7 -14 -18 -22 -25 -20 -7 3 -16 0 -20 -5 -3 -6 -11
-9 -16 -6 -5 4 -3 15 5 27 13 18 12 24 -6 54 -11 19 -18 38 -14 41 3 3 9 -3
12 -13 4 -10 16 -29 27 -41 l20 -22 42 34 c23 19 51 35 61 35 16 0 17 -2 4
-10 -18 -11 -6 -35 30 -59 22 -15 24 -15 17 2 -4 10 -2 18 6 18 7 1 22 3 35 4
13 1 28 7 35 14 6 6 19 11 28 11 9 0 30 13 46 30 16 16 43 31 59 33 16 2 39
10 52 18 22 14 30 39 12 39 -5 0 -10 -7 -10 -16 0 -12 -6 -15 -22 -9 -37 11
-59 7 -83 -15 -16 -15 -25 -18 -30 -10 -4 6 -5 13 -4 15 14 12 87 45 100 45 8
0 42 13 74 30 32 16 64 30 71 30 7 0 33 14 57 30 53 35 61 37 52 10 -3 -11 -2
-20 3 -20 16 0 20 23 8 42 -8 14 -6 20 7 31 17 12 17 15 3 42 -9 17 -16 39
-15 50 0 12 7 4 17 -21 10 -24 22 -39 30 -37 6 3 12 0 12 -5 0 -6 -6 -13 -12
-15 -7 -3 -8 -6 -3 -6 6 -1 22 10 37 24 15 14 35 25 45 25 15 0 16 2 3 10 -13
9 -13 10 0 11 8 1 21 1 29 0 7 -2 10 2 6 8 -3 6 -1 11 5 11 11 0 63 44 107 90
l23 25 -30 9 c-31 9 -41 26 -15 26 22 0 18 28 -4 35 -13 4 -28 -2 -42 -16 -21
-21 -23 -21 -36 -4 -7 11 -13 33 -13 49 l0 31 13 -25 c7 -14 19 -25 27 -25 23
0 23 32 1 64 -12 16 -21 32 -21 36 0 4 -7 13 -17 20 -9 7 -13 17 -9 23 4 6 28
-13 59 -46 28 -31 55 -58 60 -60 4 -2 7 -10 7 -18 0 -27 31 -28 53 -2 12 14
33 29 47 33 14 4 39 18 55 32 46 36 48 37 79 51 l29 13 -23 24 c-12 13 -20 31
-18 41 2 15 8 10 26 -19 l22 -39 55 58 c30 32 55 61 55 65 0 4 -13 12 -29 19
-36 14 -100 77 -112 108 -14 35 -11 98 5 111 20 17 26 -16 9 -50 -9 -18 -10
-34 -4 -50 20 -52 123 -122 164 -111 12 3 16 7 9 10 -19 6 -14 24 6 20 20 -3
82 55 82 77 0 7 -7 21 -16 30 -25 24 -9 30 17 6 l22 -21 29 32 c28 32 37 68
17 68 -5 0 -7 5 -3 11 5 8 10 6 16 -5 9 -16 11 -16 27 1 16 16 16 19 2 34 -9
9 -28 24 -43 34 -16 9 -28 21 -28 25 0 13 49 -2 66 -21 30 -33 50 -24 51 23 2
46 17 61 51 53 12 -3 22 -1 22 5 0 9 -14 14 -32 11 -12 -1 -29 37 -19 43 5 3
22 -1 37 -9 30 -15 40 -13 29 5 -7 12 -38 25 -81 36 -22 6 -25 4 -22 -16 1
-13 -3 -25 -9 -27 -8 -3 -13 4 -13 19 0 16 -9 27 -30 36 -42 19 -38 32 7 22
57 -13 69 -1 76 76 7 99 27 107 27 11 0 -65 3 -78 19 -87 32 -17 58 -12 79 15
11 14 24 25 28 25 13 0 66 88 60 99 -3 5 1 11 9 15 8 3 15 13 15 22 0 18 30
75 45 86 5 4 7 8 5 10 -28 18 -53 28 -70 28 -11 0 -20 4 -20 8 0 5 27 6 59 4
l60 -4 6 38 c8 47 25 85 36 79 11 -7 21 29 13 49 -3 9 -10 16 -16 16 -5 0 -6
5 -3 10 4 7 12 7 25 0 21 -11 33 0 24 23 -3 8 -1 18 5 22 6 3 11 17 11 30 0
13 4 26 10 30 5 3 9 18 8 33 -1 33 22 93 41 108 10 8 12 21 7 47 -5 28 -3 38
11 45 15 9 16 16 5 62 -14 62 -16 122 -3 136 6 5 21 31 35 57 24 45 25 50 11
78 -9 16 -21 29 -28 30 -6 0 -2 4 11 9 19 8 22 17 22 59 0 27 4 52 9 55 14 9
20 -61 8 -95 -9 -25 -9 -33 1 -36 6 -3 12 -11 12 -19 0 -15 18 -18 36 -6 20
13 38 86 36 155 -1 52 2 68 12 64 7 -3 13 1 13 9 0 22 -17 17 -63 -21 -23 -19
-45 -35 -48 -35 -13 0 -5 31 9 36 8 3 17 14 20 25 4 10 12 19 20 19 7 0 27 16
44 35 38 44 40 81 6 114 -14 13 -25 27 -25 32 0 15 20 10 26 -6 4 -8 12 -15
20 -15 8 0 14 -4 14 -10 0 -5 4 -10 9 -10 4 0 9 24 10 53 2 74 7 112 16 127 6
10 4 12 -8 7 -23 -9 -26 14 -6 50 10 17 15 34 12 37 -4 3 2 15 12 26 11 12 13
20 6 20 -8 0 -9 6 -3 17 8 16 25 127 24 163 0 21 -10 114 -12 120 -1 3 -3 12
-4 20 0 9 -11 15 -26 15 -21 0 -25 4 -23 28 2 24 0 26 -13 12 -17 -17 -49 -21
-39 -5 11 18 -29 10 -79 -15 -47 -24 -66 -25 -66 -3 0 5 7 8 15 4 9 -3 15 0
15 9 0 8 7 15 15 15 8 0 14 3 14 8 -3 19 2 23 15 13 10 -8 16 -9 21 -1 3 5 1
10 -4 10 -6 0 -11 5 -11 10 0 6 7 10 15 10 8 0 15 4 15 10 0 5 6 7 14 4 10 -4
16 2 18 18 2 13 9 22 17 20 58 -12 72 65 19 107 -16 13 -36 24 -44 24 -9 0
-10 5 -3 18 5 10 6 26 3 36 -5 15 -4 16 5 3 10 -13 12 -13 21 0 8 13 11 11 16
-7 9 -33 33 -29 31 5 -3 36 -14 43 -64 36 -29 -4 -43 -3 -43 5 0 11 17 13 92
14 l37 0 -5 51 c-3 28 -7 59 -10 68 -3 10 -8 30 -10 45 -3 15 -10 31 -17 35
-6 4 -8 10 -5 14 4 4 3 16 -3 26 -9 16 -17 19 -41 14 -26 -5 -29 -4 -18 8 6 8
21 16 32 18 26 4 37 28 13 28 -12 0 -15 6 -10 20 5 15 2 20 -12 21 -10 0 -13
3 -5 6 19 8 15 20 -20 52 -27 25 -30 33 -19 43 11 10 14 10 18 1 3 -7 11 -13
19 -13 12 0 13 4 2 23 -6 12 -13 28 -14 36 -2 8 -8 17 -15 21 -6 4 -8 13 -4
20 4 7 -2 18 -14 26 -17 12 -18 18 -8 28 6 8 15 12 19 10 4 -2 9 0 12 5 4 5 2
12 -3 15 -5 3 -12 27 -16 52 -3 25 -15 60 -26 78 -10 17 -19 41 -19 53 0 29
-10 54 -20 48 -10 -6 -23 42 -15 55 4 6 -1 10 -10 10 -9 0 -19 8 -22 18 -3 14
-12 18 -36 15 -32 -3 -32 -3 -7 10 32 15 37 54 10 77 -11 10 -20 24 -20 32 0
8 -9 24 -20 36 -12 12 -20 29 -18 39 2 9 -3 18 -9 20 -7 3 -13 0 -13 -6 0 -6
-9 -11 -20 -11 -23 0 -24 4 -8 29 9 15 7 23 -10 41 -12 13 -19 27 -16 32 3 5
12 1 19 -9 8 -10 17 -14 22 -9 4 5 2 11 -4 13 -7 3 -13 11 -13 19 0 8 -5 14
-11 14 -6 0 -20 11 -30 24 -18 23 -24 24 -109 21 -69 -2 -99 -8 -128 -24 l-37
-21 32 28 c31 26 145 62 201 62 12 0 22 5 22 10 0 6 -5 10 -10 10 -6 0 -15 11
-20 25 -5 14 -14 25 -20 25 -5 0 -9 15 -8 33 2 22 -1 31 -10 29 -9 -2 -12 4
-8 16 4 11 0 24 -9 32 -8 7 -23 29 -32 49 -9 20 -19 40 -21 45 -3 5 0 6 6 2
19 -12 14 7 -14 47 -18 28 -30 36 -43 32 -11 -3 -21 0 -24 9 -3 8 -1 16 4 18
12 4 -21 68 -35 68 -5 0 -3 -7 4 -15 15 -18 5 -54 -11 -38 -6 6 -14 26 -18 45
-6 27 -11 32 -30 30 -16 -3 -21 1 -19 14 2 9 -3 19 -9 21 -7 3 -13 0 -13 -6 0
-6 -6 -11 -14 -11 -7 0 -26 -10 -41 -22 -16 -13 -25 -16 -21 -7 3 8 9 22 12
32 4 9 13 17 20 17 8 0 14 5 14 11 0 5 5 7 10 4 6 -3 10 -1 10 5 0 6 -8 13
-17 16 -10 3 -32 13 -49 21 -37 19 -101 9 -175 -28 -9 -4 -19 -5 -22 -2 -10 9
20 33 42 33 11 0 35 10 53 22 l33 22 -59 59 c-49 49 -61 57 -70 45 -6 -8 -27
-18 -46 -21 -27 -5 -31 -4 -17 4 9 6 14 15 11 21 -5 8 -1 9 10 5 14 -6 17 -3
12 9 -5 13 -1 15 19 12 26 -5 35 6 13 15 -7 3 -3 6 9 6 12 1 25 6 28 11 4 6
15 8 25 5 15 -5 17 -2 13 15 -4 16 -11 19 -27 14 -17 -5 -19 -4 -8 7 20 21 14
29 -22 29 -25 0 -40 7 -55 27 -12 14 -19 29 -15 32 3 3 14 -5 24 -19 11 -14
20 -21 20 -16 0 5 6 3 14 -3 8 -7 17 -8 20 -3 5 8 -31 48 -104 117 -18 17 -46
47 -63 67 -17 21 -69 70 -115 110 -45 40 -78 74 -73 76 6 2 16 -1 23 -7 64
-52 70 -51 13 3 -38 36 -76 66 -82 66 -7 0 -40 21 -72 48 -93 74 -148 101
-108 52 17 -21 114 -92 165 -120 24 -14 38 -26 32 -28 -7 -3 -17 1 -23 7 -6 6
-18 11 -26 11 -17 0 -92 49 -104 67 -4 7 -17 13 -27 13 -11 0 -20 6 -20 14 0
7 -10 20 -22 29 -13 8 -36 26 -51 41 -34 32 -42 32 -72 2 -13 -13 -26 -22 -28
-19 -5 4 10 56 24 85 12 25 15 21 -44 66 -30 22 -61 48 -70 57 -10 9 -17 12
-17 6 0 -6 -4 -11 -10 -11 -5 0 -10 7 -10 15 0 8 -8 15 -18 15 -9 0 -23 9 -30
20 -12 20 -52 28 -52 10 0 -5 9 -14 20 -20 11 -6 31 -22 45 -36 17 -17 33 -24
46 -21 12 3 22 0 26 -9 3 -8 11 -14 18 -14 7 0 15 -7 19 -15 3 -10 -1 -15 -13
-15 -10 0 -21 7 -25 15 -3 8 -16 15 -29 15 -14 0 -30 7 -37 15 -7 8 -22 15
-34 15 -21 0 -46 38 -46 69 0 19 -53 -31 -81 -76 -11 -18 -34 -43 -52 -55 -33
-24 -31 -18 20 53 36 50 36 81 -1 112 -21 19 -21 19 11 13 42 -7 53 11 16 27
-15 7 -40 20 -55 30 -18 12 -35 16 -49 12 -18 -6 -21 -4 -16 9 4 10 1 16 -8
16 -8 0 -15 4 -15 10 0 5 -11 12 -25 16 -14 3 -25 10 -25 15 0 5 -7 9 -16 9
-8 0 -47 14 -87 31 -39 16 -79 28 -88 26 -9 -2 -21 4 -28 14 -6 11 -15 19 -21
19 -11 0 -1 -31 14 -43 6 -5 -3 -6 -21 -3 -33 5 -33 5 -33 -37 0 -31 -3 -38
-10 -27 -5 8 -10 27 -10 42 0 21 -5 27 -27 31 l-28 4 28 2 c26 1 41 31 16 31
-6 0 -18 8 -27 18 -19 21 -130 72 -156 72 -9 0 -27 6 -39 14 -12 7 -47 21 -77
31 -30 10 -64 21 -75 26 -42 16 -93 30 -194 49 -58 12 -107 23 -110 25 -4 2
-40 8 -81 14 -41 6 -113 17 -159 25 l-83 14 6 -46 c3 -25 10 -50 15 -56 5 -6
12 -31 15 -56 l6 -45 -21 50 c-11 28 -27 57 -35 66 -8 8 -14 22 -14 30 -1 20
-38 62 -49 54 -6 -3 -18 -1 -28 4 -50 26 -452 38 -460 14 -3 -7 3 -13 12 -13
13 0 16 -6 11 -24 -3 -14 -2 -28 4 -31 5 -3 9 -18 9 -33 -1 -17 -3 -21 -6 -9
-5 20 -20 23 -26 5 -2 -7 -2 -1 0 13 2 15 -6 45 -17 68 l-22 41 -68 0 c-38 0
-71 -4 -74 -9 -3 -5 -21 -5 -40 -1 -41 9 -133 2 -162 -12 -15 -7 -28 -7 -45 2
l-24 12 23 -22 c13 -12 21 -25 17 -28 -3 -3 -11 0 -17 6 -7 7 -16 12 -20 12
-10 0 16 -44 46 -79 l21 -24 -22 14 c-13 8 -23 17 -23 22 0 4 -4 5 -10 2 -5
-3 -10 1 -10 9 0 9 -3 16 -7 16 -12 -1 -53 -37 -53 -47 0 -5 -12 -20 -27 -34
l-26 -24 22 38 c13 21 21 41 17 44 -3 4 -6 0 -6 -8 -1 -12 -3 -11 -13 1 -29
35 -52 39 -208 33 -149 -6 -236 -23 -197 -38 9 -4 25 -2 37 4 11 6 35 11 53
10 l33 -1 -30 -8 c-16 -5 -59 -15 -95 -23 -67 -16 -150 -44 -224 -76 -83 -36
-159 -56 -164 -43 -6 18 -34 14 -62 -8 -14 -11 -35 -20 -48 -20 -12 0 -25 -7
-28 -15 -5 -12 -10 -13 -19 -5 -9 8 -19 8 -32 1 -37 -21 -140 -49 -198 -55
-57 -6 -58 -6 -30 7 17 8 48 17 70 21 22 4 45 11 50 16 6 4 34 15 63 24 28 10
52 22 52 27 0 5 9 9 19 9 11 0 22 4 25 9 3 4 24 11 47 15 22 4 59 16 80 27 63
31 193 77 266 93 124 27 217 45 266 51 26 4 62 13 80 21 30 14 27 15 -53 9
-113 -8 -277 -33 -300 -45 -10 -6 -31 -10 -47 -10 -15 0 -59 -10 -98 -21 -145
-41 -165 -46 -165 -40 0 7 115 47 180 62 181 44 396 79 487 79 46 0 83 3 83 6
0 3 -12 21 -26 39 -14 19 -23 39 -19 45 10 16 23 12 31 -12 3 -12 16 -30 28
-40 19 -17 32 -18 146 -11 69 4 319 7 555 5 416 -2 483 -6 754 -41 141 -19
401 -92 518 -146 17 -8 38 -15 47 -15 9 0 24 -4 34 -9 9 -6 37 -18 62 -29 25
-11 62 -27 83 -36 21 -9 50 -16 66 -16 16 0 34 -7 41 -15 7 -8 28 -17 49 -21
20 -3 57 -19 82 -35 25 -16 53 -29 61 -29 9 0 21 -6 27 -14 6 -7 51 -31 99
-52 48 -21 89 -42 92 -46 3 -4 19 -12 35 -18 42 -16 181 -98 195 -115 7 -8 20
-15 30 -15 10 0 23 -7 30 -15 14 -17 55 -17 55 0 0 6 -10 11 -22 13 -12 2 -23
10 -25 19 -3 15 -54 50 -117 78 -54 24 -183 102 -215 130 -15 13 -49 34 -75
45 -25 12 -59 28 -74 35 -16 8 -34 15 -40 15 -7 0 -33 11 -58 24 -26 12 -68
28 -95 35 -27 7 -56 18 -64 25 -8 8 -28 16 -44 20 -16 4 -39 14 -50 22 -20 14
-20 15 9 8 17 -3 54 -17 84 -30 29 -13 60 -24 67 -24 8 0 14 -4 14 -9 0 -5 10
-11 23 -14 107 -27 276 -100 324 -141 17 -14 34 -26 37 -26 4 0 23 -11 44 -23
68 -43 127 -74 166 -87 22 -7 65 -26 97 -41 32 -16 62 -29 67 -29 5 0 25 -15
44 -32 19 -18 68 -62 108 -98 41 -36 98 -87 127 -114 57 -52 73 -49 23 4 -17
18 -29 34 -27 36 2 2 19 -13 39 -33 19 -21 55 -54 79 -73 96 -76 479 -478 479
-503 0 -3 16 -23 36 -44 47 -49 111 -132 149 -193 17 -27 46 -68 66 -92 20
-24 51 -70 69 -103 18 -33 38 -67 45 -75 13 -15 36 -54 79 -135 12 -22 40 -71
63 -110 49 -85 93 -177 93 -196 0 -12 21 -60 141 -317 22 -46 39 -89 39 -96 0
-8 6 -19 14 -25 8 -7 17 -31 21 -54 6 -40 16 -69 36 -110 5 -9 12 -39 16 -65
4 -38 3 -45 -7 -35 -7 7 -17 31 -21 55 -22 114 -55 218 -69 218 -4 0 -10 9
-13 21 -3 12 -10 18 -15 15 -6 -3 -8 2 -5 13 4 15 -50 121 -63 121 -2 0 6 -21
17 -47 12 -27 27 -69 35 -95 8 -26 20 -53 27 -60 7 -7 21 -44 31 -83 11 -38
27 -88 37 -109 11 -22 19 -49 19 -60 0 -19 21 -110 82 -351 11 -44 24 -107 28
-140 5 -33 15 -98 24 -145 19 -105 31 -302 16 -252 -6 17 -12 32 -13 32 -1 0
-1 -78 1 -172 2 -95 -1 -168 -5 -161 -4 6 -7 -72 -7 -173 1 -101 -2 -186 -6
-189 -5 -3 -12 34 -16 82 l-9 88 -5 -60 c-3 -33 -2 -65 2 -70 8 -13 2 -214 -6
-223 -4 -3 -4 -22 0 -41 4 -31 3 -34 -8 -20 -21 25 -38 11 -37 -29 l1 -37 8
30 c7 26 8 23 8 -20 1 -27 -3 -68 -7 -90 -5 -22 -14 -63 -20 -92 -6 -29 -14
-60 -19 -70 -12 -22 -40 -131 -52 -195 -5 -26 -15 -62 -23 -80 -8 -18 -36
-100 -63 -183 -26 -82 -51 -152 -56 -153 -4 -2 -8 -13 -8 -25 0 -25 -37 -127
-51 -141 -5 -6 -9 5 -10 30 l-1 39 -8 -35 c-17 -81 -114 -315 -167 -404 -54
-91 -121 -191 -149 -221 -13 -14 -24 -29 -24 -33 0 -4 -16 -31 -35 -61 -19
-29 -35 -54 -35 -56 0 -2 -12 -21 -26 -42 -14 -21 -37 -63 -50 -93 -14 -30
-32 -69 -41 -87 -27 -56 -8 -58 32 -2 22 30 43 57 48 60 5 3 8 9 7 13 0 4 8
18 20 33 11 14 20 23 20 19 0 -9 -51 -110 -59 -116 -22 -17 -111 -134 -111
-146 0 -8 -5 -14 -11 -14 -7 0 -37 -21 -68 -47 -53 -44 -51 -39 9 28 30 33 64
89 55 89 -9 0 -55 -50 -145 -155 -87 -102 -208 -221 -335 -330 -122 -104 -404
-315 -422 -315 -3 0 -14 -6 -22 -14 -9 -8 -50 -32 -91 -54 -62 -33 -213 -112
-287 -151 -92 -48 -246 -116 -328 -145 -55 -19 -136 -48 -180 -64 -124 -45
-145 -52 -213 -70 -41 -10 -59 -19 -53 -25 7 -7 32 -3 73 10 120 40 353 112
413 128 33 9 80 23 105 30 35 11 41 11 28 1 -10 -7 -57 -25 -105 -40 -49 -15
-104 -34 -123 -41 -19 -8 -69 -24 -110 -35 -41 -12 -84 -25 -95 -30 -28 -12
-154 -46 -260 -69 -194 -43 -232 -51 -297 -61 -37 -6 -74 -13 -82 -16 -9 -3
-16 -1 -16 4 0 6 20 14 45 18 25 3 43 10 40 14 -3 5 -20 4 -37 -1 -40 -11
-206 -35 -318 -45 -83 -8 -84 -9 -35 -15 75 -9 -549 -14 -680 -5 -27 2 -38 1
-22 -1 15 -2 27 -9 27 -15 0 -7 -22 -8 -62 -4 -98 9 -141 18 -129 26 7 4 -52
10 -131 13 -79 3 -179 11 -223 17 -96 14 -384 68 -440 82 -90 23 -265 80 -270
88 -5 8 54 -2 135 -24 100 -27 213 -55 320 -76 133 -28 180 -34 160 -22 -15 9
-68 23 -235 62 -157 37 -198 48 -275 69 -41 12 -99 28 -129 36 -29 8 -87 26
-128 41 -41 14 -76 24 -78 22 -8 -8 7 -48 16 -42 8 5 90 -28 141 -56 10 -6 25
-10 33 -10 8 0 15 -4 15 -10 0 -13 10 -15 -103 24 l-97 33 0 -39 c0 -31 5 -41
25 -50 33 -15 32 -24 -6 -32 -36 -7 -70 11 -47 25 9 6 9 13 -2 34 -8 15 -13
39 -12 55 1 18 -4 32 -14 38 -14 8 -14 10 0 21 17 15 22 36 6 26 -5 -3 -10 -3
-10 2 0 4 -15 16 -33 27 -36 21 -275 141 -352 177 -27 13 -52 27 -55 30 -8 10
-118 79 -125 79 -4 0 -28 18 -53 40 -25 23 -52 38 -59 35 -12 -4 -65 25 -83
46 -3 3 -25 19 -50 36 -25 17 -54 39 -65 50 -11 10 -42 33 -70 50 -54 35 -287
263 -268 263 6 0 13 -3 15 -7 11 -26 252 -231 348 -298 63 -43 126 -89 140
-102 16 -14 27 -19 31 -12 4 8 20 2 45 -15 21 -14 43 -26 48 -26 5 0 28 -16
52 -35 23 -19 44 -35 47 -35 2 0 41 -22 86 -50 46 -27 107 -58 135 -69 29 -11
69 -29 90 -40 20 -12 41 -21 46 -21 6 0 29 -9 53 -20 85 -39 144 -58 156 -51
8 5 -6 13 -36 21 -26 7 -55 19 -64 27 -8 7 -25 13 -37 13 -12 0 -22 4 -22 8 0
11 -97 62 -186 97 -38 16 -112 54 -165 86 -53 32 -105 62 -115 66 -11 3 -21 9
-24 12 -17 20 -96 74 -124 86 -19 8 -37 19 -41 24 -6 11 -104 86 -150 115 -16
11 -43 32 -60 48 -16 16 -61 54 -99 86 -92 76 -236 213 -236 225 0 11 -27 44
-125 152 -106 117 -116 129 -242 300 -49 66 -107 149 -129 184 -21 35 -47 75
-57 90 -9 14 -20 34 -23 44 -4 9 -10 17 -15 17 -5 0 -9 4 -9 9 0 5 -23 45 -52
87 -28 43 -65 105 -81 139 -16 33 -34 62 -38 63 -5 2 -9 10 -9 18 0 8 -8 34
-19 57 -10 23 -29 67 -41 97 -13 30 -40 93 -61 138 -22 46 -39 87 -39 91 0 4
-11 30 -24 57 -13 27 -35 85 -49 129 -14 44 -48 145 -76 224 -61 174 -74 236
-65 298 l7 47 23 -91 c13 -51 25 -116 28 -145 2 -29 11 -66 20 -83 9 -16 16
-34 16 -38 0 -5 7 -15 15 -23 8 -9 15 -30 15 -48 0 -18 7 -41 15 -52 8 -10 15
-29 15 -41 0 -12 4 -24 9 -27 5 -4 12 -25 16 -48 7 -39 40 -125 72 -188 24
-46 14 6 -11 64 -14 30 -22 65 -20 78 4 21 4 22 -6 3 -8 -16 -9 -13 -5 16 6
39 -14 97 -39 118 -12 10 -14 24 -10 52 4 24 3 39 -4 39 -5 0 -12 10 -15 23
-11 44 -49 183 -57 212 -33 109 -62 221 -75 285 -8 41 -22 107 -31 145 -25
108 -32 809 -9 1007 19 176 44 327 56 350 4 9 12 79 16 155 5 103 9 128 14 98
4 -22 6 -69 3 -105 -3 -59 -2 -61 6 -25 6 22 15 72 21 110 6 39 15 74 20 80 5
5 9 24 9 42 0 19 7 47 15 62 8 16 21 74 29 130 20 134 38 166 29 52 -4 -63 -3
-82 5 -77 7 4 12 19 12 33 0 36 39 173 56 198 8 11 14 26 14 35 0 8 9 26 20
40 11 14 20 32 20 41 0 8 12 40 26 70 15 30 37 78 50 107 12 28 27 52 32 52 6
0 13 12 17 27 3 14 15 38 26 51 10 14 19 33 19 43 0 10 5 21 10 24 6 3 10 15
10 25 0 10 5 20 11 22 17 6 19 56 3 62 -8 3 -14 12 -14 21 0 18 -40 20 -59 3
-10 -11 -16 -9 -28 10 -18 26 -33 29 -33 5 1 -21 -52 -132 -62 -133 -4 0 4 25
18 55 24 56 32 115 14 115 -5 0 -26 -35 -46 -77 -20 -43 -39 -72 -42 -65 -5
16 15 66 45 111 13 19 23 42 23 52 0 12 7 19 19 19 20 0 61 48 61 70 0 7 -7
10 -16 6 -9 -3 -21 -6 -27 -6 -7 0 -19 -15 -27 -32 -7 -18 -22 -42 -33 -53
-22 -24 -107 -170 -107 -185 0 -5 -3 -10 -7 -10 -5 0 -13 -10 -19 -23 -6 -12
-22 -44 -37 -72 -14 -27 -36 -72 -47 -100 -12 -27 -25 -59 -30 -70 -4 -11 -15
-38 -25 -60 -9 -22 -21 -51 -27 -65 -39 -90 -53 -126 -73 -185 -9 -27 -20 -59
-25 -70 -7 -18 -26 -83 -50 -175 -38 -144 -78 -265 -86 -258 -2 3 -1 16 5 29
8 21 25 85 51 189 37 146 92 313 135 407 8 17 15 36 15 41 0 6 9 27 19 49 35
70 51 106 51 117 0 6 13 38 30 71 16 33 30 65 30 71 0 6 9 22 19 36 17 20 129
229 165 305 6 13 16 23 21 23 10 0 45 75 45 96 0 5 9 20 20 32 11 12 26 39 33
59 9 28 17 37 30 35 16 -3 17 0 7 17 -6 12 -16 21 -22 21 -9 0 -9 3 0 12 8 8
15 9 20 3 4 -6 15 -16 25 -24 15 -12 17 -11 17 11 0 16 -9 29 -24 38 -23 12
-28 10 -66 -23 -23 -19 -53 -59 -68 -88 -32 -63 -79 -133 -173 -259 -24 -32
-66 -106 -138 -245 -14 -27 -29 -51 -33 -53 -5 -2 -8 -10 -8 -18 0 -13 -43
-114 -71 -166 -5 -10 -9 -22 -9 -28 0 -17 -34 -90 -42 -90 -11 0 -10 18 1 24
5 3 12 18 16 33 3 15 15 45 26 67 10 22 19 45 19 50 0 15 162 338 177 354 7 7
13 18 13 23 0 5 9 19 19 31 26 27 17 45 -27 53 -20 4 -40 12 -45 18 -17 26
-89 -89 -204 -323 -84 -171 -106 -221 -123 -275 -7 -22 -20 -60 -28 -85 -8
-25 -16 -51 -18 -59 -3 -8 -7 -11 -10 -8 -3 3 -1 20 5 39 6 18 20 64 31 101
11 37 33 96 50 130 16 34 30 66 30 70 0 5 14 38 30 74 17 35 28 74 26 86 -1
12 -1 16 1 10 5 -15 23 -17 23 -3 0 7 77 176 97 213 2 4 0 7 -4 7 -10 0 -89
-132 -85 -142 1 -5 -2 -8 -8 -8 -14 0 -48 -72 -42 -89 2 -8 0 -11 -5 -8 -9 6
-13 -3 -54 -111 -16 -43 -25 -57 -27 -43 -5 33 -18 25 -37 -21 -9 -24 -30 -72
-47 -108 -41 -88 -43 -94 -68 -180 -12 -41 -36 -118 -52 -170 -17 -52 -32
-101 -34 -108 -2 -7 -8 -11 -13 -7 -6 3 -8 -10 -5 -32 4 -25 2 -33 -4 -25 -19
27 -96 -371 -127 -658 -22 -200 -30 -646 -16 -845 39 -528 144 -998 328 -1465
393 -998 1106 -1836 2038 -2397 143 -86 413 -221 458 -228 21 -3 46 -14 56
-23 9 -9 29 -18 44 -19 15 -1 42 -9 59 -17 17 -9 37 -16 45 -16 7 0 32 -9 56
-19 57 -27 160 -59 170 -54 16 9 5 24 -30 42 -113 58 -214 104 -263 121 -95
31 -201 84 -122 60 41 -12 148 -50 232 -80 41 -15 96 -36 121 -45 26 -9 55
-15 65 -13 10 1 27 -5 38 -15 22 -19 225 -91 305 -108 25 -6 62 -14 81 -19
109 -26 225 -53 297 -68 45 -10 85 -21 89 -25 4 -4 16 -7 28 -7 31 0 7 14 -59
34 -33 10 -91 29 -130 41 -38 13 -92 29 -120 35 -70 16 -165 41 -195 51 -14 4
-43 11 -65 15 -21 4 -78 22 -125 41 -46 18 -89 33 -95 33 -5 0 -64 27 -130 59
-66 33 -183 86 -260 118 -130 54 -258 123 -415 226 -36 23 -67 44 -70 47 -3 3
-43 31 -90 63 -47 31 -98 68 -115 83 l-30 25 33 -17 c17 -10 32 -21 32 -25 0
-4 11 -10 25 -13 14 -4 25 -11 25 -16 0 -6 5 -10 11 -10 11 0 127 -75 139 -89
3 -4 48 -33 100 -66 52 -32 97 -61 100 -64 4 -5 134 -70 202 -102 22 -11 114
-44 208 -75 41 -14 89 -32 105 -39 156 -70 356 -137 560 -189 203 -52 282 -73
303 -85 10 -6 46 -15 78 -20 32 -6 70 -13 84 -16 18 -4 17 -2 -5 6 -16 7 -35
16 -41 20 -6 5 -33 12 -60 15 -27 4 -53 10 -59 14 -20 15 -234 86 -295 97 -14
3 -54 15 -90 28 -36 13 -85 29 -110 35 -73 20 -155 48 -248 84 -48 19 -100 38
-117 42 -97 22 -575 271 -575 299 0 3 24 -8 53 -24 161 -89 238 -129 287 -150
30 -13 74 -32 97 -42 23 -11 49 -19 57 -19 8 0 18 -5 21 -10 3 -6 15 -10 25
-10 11 0 34 -6 52 -14 85 -37 208 -85 258 -101 30 -10 64 -21 75 -26 11 -4 47
-15 80 -24 33 -10 80 -23 105 -30 25 -8 77 -21 115 -30 39 -9 102 -26 140 -37
39 -12 88 -25 110 -29 22 -4 60 -13 85 -19 187 -46 861 -74 1190 -50 156 11
347 35 380 48 14 5 54 12 90 16 72 8 279 57 350 84 118 43 113 63 -6 28 -202
-60 -456 -113 -604 -127 -47 -4 -130 -12 -185 -18 -218 -22 -767 -11 -965 19
-36 5 -94 14 -130 19 -73 9 -317 68 -340 82 -29 16 29 10 128 -15 53 -14 133
-30 177 -36 44 -6 109 -15 145 -21 220 -31 715 -37 1025 -13 147 12 202 19
325 45 100 21 197 41 235 49 22 5 83 18 135 29 52 12 127 26 166 31 40 6 109
23 155 39 46 15 146 49 221 74 76 26 142 47 148 47 6 0 36 11 66 25 30 14 57
25 61 25 13 0 113 53 113 60 0 4 23 21 50 38 76 47 59 24 -25 -36 -77 -54
-209 -120 -270 -135 -11 -3 -72 -24 -135 -47 -63 -24 -184 -66 -268 -95 -84
-29 -156 -55 -159 -59 -4 -3 -15 -6 -25 -6 -10 0 -18 -5 -18 -11 0 -7 9 -9 23
-5 12 4 51 13 87 21 78 17 119 29 230 65 47 16 128 42 180 58 52 17 113 38
135 47 89 38 192 86 225 106 19 11 55 29 80 41 115 53 235 117 282 150 14 10
29 18 33 18 3 0 50 32 103 72 53 40 122 89 152 110 86 57 160 149 175 217 7
33 20 32 27 -3 2 -16 13 -10 67 35 34 30 113 102 175 161 61 58 112 105 114
103 9 -8 -36 -58 -130 -145 -157 -144 -238 -230 -238 -250 0 -10 -4 -22 -10
-25 -5 -3 -10 -13 -10 -22 0 -11 6 -8 21 11 11 14 44 37 72 51 35 16 97 67
186 153 117 113 131 129 117 141 -21 18 -20 40 2 48 9 4 23 15 30 25 13 17 16
18 37 4 21 -14 24 -13 46 13 13 16 53 60 88 99 71 79 118 142 174 231 20 34
44 61 51 61 24 0 163 199 304 435 319 534 539 1160 631 1790 109 752 35 1554
-209 2270 -34 102 -40 111 -40 64 0 -19 5 -40 11 -46 8 -8 8 -16 0 -30 -8 -13
-10 -14 -11 -3 0 12 -39 121 -80 225 -5 11 -21 54 -36 95 -15 41 -37 91 -49
110 -12 19 -34 68 -49 108 -15 39 -31 72 -36 72 -4 0 -11 17 -15 37 -5 26 -9
33 -15 23 -5 -8 -10 -12 -12 -10 -19 30 -30 49 -38 68 -6 14 -15 20 -22 16 -8
-5 -9 -2 -4 11 4 12 0 25 -14 38 -25 23 -39 14 -22 -13 7 -11 12 -26 12 -34 0
-8 8 -21 18 -28 19 -14 112 -191 112 -214 0 -8 4 -22 9 -32 18 -34 39 -88 51
-127 14 -46 30 -87 70 -170 41 -86 60 -131 60 -144 0 -7 9 -40 19 -74 78 -250
100 -328 106 -367 4 -25 17 -99 30 -165 13 -66 29 -165 35 -220 7 -55 16 -113
21 -129 12 -37 12 -99 0 -92 -4 3 -11 27 -14 53 -9 66 -58 314 -69 343 -3 8
-10 42 -16 75 -5 33 -19 96 -31 140 -11 44 -21 88 -21 98 0 9 -4 25 -10 35 -5
9 -21 53 -36 97 -56 170 -129 352 -159 400 -17 28 -47 82 -65 120 -19 39 -56
108 -82 154 -26 46 -48 89 -48 95 0 6 -13 25 -29 42 -16 17 -46 58 -67 90 -21
33 -41 61 -46 62 -4 2 -8 8 -8 12 0 5 -14 29 -31 54 -16 25 -32 55 -34 67 -2
12 -25 43 -50 71 -34 35 -45 42 -40 26 6 -17 -1 -12 -24 16 -36 45 -37 48 -13
39 9 -4 -4 17 -29 46 -26 29 -53 65 -60 80 -7 14 -43 54 -79 89 -164 158 -204
200 -236 249 -19 29 -60 72 -92 95 -31 24 -59 47 -61 52 -2 5 -26 29 -55 55
-28 25 -82 76 -121 112 -38 36 -95 83 -125 105 -30 21 -59 42 -65 47 -45 35
-129 87 -141 87 -8 0 -12 5 -9 10 3 6 1 10 -5 10 -7 0 -24 11 -38 24 -27 25
-72 61 -169 136 -49 38 -91 64 -159 100 -16 9 -44 25 -60 37 -17 12 -43 25
-60 29 -16 4 -49 17 -74 29 -25 12 -50 20 -56 18 -11 -4 -84 34 -84 44 0 2 5
1 10 -2 6 -3 10 -2 10 4 0 18 -20 23 -37 9 -14 -11 -15 -10 -10 12 4 14 4 19
1 13 -8 -17 -32 -16 -49 1 -20 20 -172 77 -220 83 l-40 4 40 -20 c22 -11 43
-20 48 -21 4 0 91 -41 193 -90 102 -50 189 -88 194 -85 5 3 20 -6 33 -19 14
-13 53 -39 88 -57 35 -17 78 -42 95 -55 17 -13 36 -24 42 -24 6 0 12 -4 14 -8
2 -4 30 -24 64 -45 33 -20 69 -46 80 -58 10 -12 36 -33 57 -46 21 -13 89 -64
150 -112 62 -48 137 -102 167 -121 30 -19 62 -41 70 -50 8 -8 38 -33 65 -54
65 -52 174 -154 255 -239 36 -38 100 -105 142 -150 43 -44 80 -88 83 -96 6
-17 110 -131 120 -131 7 0 35 -27 55 -54 13 -18 13 -19 0 -11 -8 4 -23 15 -32
23 -9 7 -22 11 -27 7 -6 -3 -11 -1 -11 5 0 6 -19 32 -42 56 -24 25 -47 53 -52
62 -36 64 -502 522 -531 522 -3 0 -21 15 -41 33 -19 17 -53 42 -75 54 -23 12
-55 34 -73 47 -17 14 -59 47 -93 73 -35 26 -96 75 -137 108 -105 85 -178 135
-280 194 -49 28 -91 51 -93 51 -3 0 -17 8 -31 19 -76 53 -593 295 -747 349
-189 67 -488 145 -700 182 -66 12 -123 24 -127 26 -3 2 -93 12 -200 21 -209
18 -681 25 -888 13z m1596 -189 c5 -5 18 -11 29 -14 11 -2 3 -3 -19 -2 -41 4
-76 25 -40 25 11 0 24 -4 30 -9z m194 -59 c14 -6 18 -11 10 -11 -18 -1 -127
32 -136 41 -8 8 93 -16 126 -30z m-2270 -44 c-29 -11 -249 -68 -265 -68 -25 1
28 19 115 40 52 12 104 26 115 30 11 5 29 9 40 9 17 0 16 -2 -5 -11z m2403 5
c-7 -2 -21 -2 -30 0 -10 3 -4 5 12 5 17 0 24 -2 18 -5z m-2163 -33 c0 -4 -35
-10 -78 -12 -73 -5 -256 -47 -427 -97 -217 -64 -231 -69 -355 -119 -41 -17
-118 -47 -170 -67 -52 -20 -112 -45 -133 -56 -22 -10 -44 -19 -49 -19 -6 0
-36 -16 -68 -35 -61 -37 -120 -55 -120 -37 0 6 9 14 20 17 11 3 20 10 20 14 0
5 12 13 28 19 131 50 411 162 477 192 33 14 155 58 225 80 78 25 194 55 430
111 100 24 200 28 200 9z m43 3 c-7 -2 -19 -2 -25 0 -7 3 -2 5 12 5 14 0 19
-2 13 -5z m540 -40 c-7 -2 -19 -2 -25 0 -7 3 -2 5 12 5 14 0 19 -2 13 -5z
m-1206 -49 c-3 -3 -12 -4 -19 -1 -8 3 -5 6 6 6 11 1 17 -2 13 -5z m-44 -11
c-7 -2 -21 -2 -30 0 -10 3 -4 5 12 5 17 0 24 -2 18 -5z m1394 -65 c-3 -7 -5
-2 -5 12 0 14 2 19 5 13 2 -7 2 -19 0 -25z m167 4 c2 -4 -2 -16 -10 -27 -13
-18 -14 -18 -14 8 0 25 13 36 24 19z m346 -41 c0 -6 -4 -13 -10 -16 -5 -3 -10
1 -10 9 0 9 5 16 10 16 6 0 10 -4 10 -9z m60 -71 c24 -8 24 -8 -5 -9 -16 0
-37 4 -45 9 -12 8 -11 10 5 9 11 -1 31 -5 45 -9z m840 0 c12 -8 11 -10 -7 -10
-12 0 -25 5 -28 10 -8 13 15 13 35 0z m-2935 -10 c-3 -5 -10 -10 -16 -10 -5 0
-9 5 -9 10 0 6 7 10 16 10 8 0 12 -4 9 -10z m-86 -34 c-2 -2 -18 -7 -34 -11
l-30 -6 30 14 c27 13 45 14 34 3z m2719 -37 c2 -23 2 -23 -13 -5 -18 24 -20
39 -2 34 6 -3 13 -15 15 -29z m82 -7 c0 -13 -12 -22 -22 -16 -10 6 -1 24 13
24 5 0 9 -4 9 -8z m-2670 -51 c0 -5 -7 -12 -16 -15 -14 -5 -15 -4 -4 9 14 17
20 19 20 6z m2790 -21 c11 -5 30 -10 42 -10 13 0 31 -7 42 -15 17 -13 15 -14
-20 -9 -59 9 -124 35 -124 50 0 11 5 12 20 4 11 -5 29 -14 40 -20z m-2950 -41
c0 -25 -33 -22 -38 4 -2 12 3 17 17 17 15 0 21 -6 21 -21z m3780 -91 c0 -6 -6
-5 -15 2 -8 7 -15 14 -15 16 0 2 7 1 15 -2 8 -4 15 -11 15 -16z m60 -40 c0
-12 -14 -10 -28 4 -19 19 -14 29 8 16 11 -7 20 -16 20 -20z m-525 -17 c3 -5 1
-12 -5 -16 -5 -3 -10 1 -10 9 0 18 6 21 15 7z m52 -17 c-3 -3 -12 -4 -19 -1
-8 3 -5 6 6 6 11 1 17 -2 13 -5z m1198 -217 c84 -62 375 -381 390 -426 7 -24
20 -27 29 -8 3 6 3 2 0 -10 -3 -15 -1 -23 8 -23 8 0 22 -13 31 -30 10 -16 22
-30 26 -30 5 0 27 -24 49 -52 22 -29 48 -62 58 -73 28 -31 84 -114 84 -125 0
-6 4 -10 9 -10 5 0 18 -15 30 -32 11 -18 28 -42 38 -53 45 -49 84 -106 81
-116 -2 -6 -17 8 -33 32 -17 24 -45 60 -62 79 -18 19 -33 38 -33 42 0 4 -6 13
-12 20 -20 21 -68 86 -68 92 0 7 -25 37 -95 115 -27 31 -56 65 -65 75 -8 11
-38 45 -66 75 -28 31 -68 78 -88 105 -97 129 -238 275 -353 366 -88 70 -115
103 -35 45 26 -20 61 -46 77 -58z m-5045 73 c0 -5 -4 -10 -10 -10 -5 0 -10 5
-10 10 0 6 5 10 10 10 6 0 10 -4 10 -10z m-172 -37 c-2 -11 -11 -17 -22 -15
-11 2 -23 -2 -27 -10 -6 -9 -9 -7 -9 9 0 16 4 21 15 17 8 -4 15 -1 15 5 0 6 7
11 16 11 9 0 14 -7 12 -17z m82 13 c0 -3 -4 -8 -10 -11 -5 -3 -10 -1 -10 4 0
6 5 11 10 11 6 0 10 -2 10 -4z m4490 -66 c0 -5 -7 -10 -15 -10 -8 0 -15 5 -15
10 0 6 7 10 15 10 8 0 15 -4 15 -10z m-93 -30 c0 -36 -3 -37 -18 -9 -9 17 -8
23 2 30 8 5 14 9 15 9 0 0 1 -13 1 -30z m-4667 -100 c0 -9 -7 -17 -15 -17 -10
0 -15 10 -15 30 0 25 2 28 15 17 8 -7 15 -20 15 -30z m-57 -65 c-3 -9 -8 -14
-10 -11 -3 3 -2 9 2 15 9 16 15 13 8 -4z m4987 -25 c0 -5 -4 -10 -10 -10 -5 0
-10 5 -10 10 0 6 5 10 10 10 6 0 10 -4 10 -10z m-5013 -22 c-3 -8 -6 -5 -6 6
-1 11 2 17 5 13 3 -3 4 -12 1 -19z m5609 -55 c-7 -7 -26 7 -26 19 0 6 6 6 15
-2 9 -7 13 -15 11 -17z m68 -74 c57 -73 46 -76 -13 -4 -36 44 -48 65 -38 65 2
0 25 -28 51 -61z m-5994 -92 c0 -3 -9 -3 -20 0 -20 5 -25 15 -14 26 6 6 34
-16 34 -26z m6055 13 c3 -5 1 -10 -4 -10 -6 0 -11 5 -11 10 0 6 2 10 4 10 3 0
8 -4 11 -10z m265 -47 c7 -8 7 -13 1 -13 -11 0 -51 53 -51 67 1 4 10 -3 20
-17 11 -14 25 -31 30 -37z m-686 35 c27 12 96 5 96 -10 0 -6 -17 -8 -37 -6
-21 3 -50 1 -65 -3 -20 -5 -31 -2 -45 13 -18 20 -18 21 4 7 17 -10 27 -10 47
-1z m849 -47 c15 -14 27 -32 27 -40 0 -17 -99 76 -100 93 0 9 19 -5 73 -53z
m-256 2 c-4 -3 1 -15 10 -26 17 -19 17 -20 -3 -9 -28 15 -39 42 -17 42 9 0 13
-3 10 -7z m-107 -13 c0 -5 -2 -10 -4 -10 -3 0 -8 5 -11 10 -3 6 -1 10 4 10 6
0 11 -4 11 -10z m285 -50 c3 -11 10 -20 14 -20 5 0 21 -20 37 -45 15 -25 31
-45 35 -45 4 0 10 -12 13 -27 4 -14 18 -35 32 -45 13 -11 24 -27 24 -35 0 -19
-66 52 -76 82 -4 10 -12 24 -18 31 -6 6 -20 24 -31 40 -11 15 -32 43 -47 62
-33 41 -34 46 -9 32 11 -5 23 -19 26 -30z m-595 0 c0 -5 -5 -10 -11 -10 -5 0
-7 5 -4 10 3 6 8 10 11 10 2 0 4 -4 4 -10z m480 -26 c22 -41 73 -118 85 -126
5 -4 7 -10 4 -13 -4 -3 -19 11 -35 32 -15 21 -32 40 -36 41 -4 2 -8 9 -8 16 0
6 -12 29 -26 50 -15 22 -21 37 -13 34 8 -2 21 -17 29 -34z m262 -71 c32 -34
89 -119 131 -193 16 -30 45 -73 64 -96 18 -23 33 -46 33 -53 0 -6 5 -11 10
-11 6 0 10 -4 10 -8 0 -5 22 -46 50 -92 27 -46 58 -101 67 -124 10 -23 39 -83
65 -135 27 -52 48 -100 48 -108 0 -7 4 -13 8 -13 12 0 32 -70 32 -106 -1 -37
-11 -21 -40 64 -12 34 -41 99 -64 145 -106 203 -151 286 -191 347 -92 142
-135 210 -135 217 0 3 -10 20 -23 37 -12 17 -28 43 -34 57 -6 15 -26 43 -43
63 -37 42 -26 49 12 9z m-2116 -19 c27 -9 56 -23 65 -30 8 -8 23 -14 33 -14
10 0 14 -5 10 -12 -5 -7 -3 -8 5 -4 7 5 18 2 24 -6 7 -8 37 -34 67 -59 30 -24
109 -96 175 -160 66 -64 134 -129 150 -144 183 -164 978 -953 1000 -992 11
-18 23 -33 27 -33 4 0 8 -6 8 -14 0 -8 3 -16 8 -18 4 -1 33 -34 65 -73 239
-290 277 -362 277 -515 0 -129 -36 -190 -139 -232 l-56 -23 -3395 0 c-2762 0
-3402 2 -3432 13 -20 7 -55 26 -77 42 -111 81 -50 223 109 252 185 33 205 34
1465 48 495 6 1105 15 1355 20 250 5 878 14 1395 20 926 10 1632 26 1664 37
34 12 81 55 81 74 0 17 -71 155 -135 264 -11 18 -31 53 -43 76 -13 24 -32 54
-43 67 -10 14 -19 29 -19 34 0 12 -51 80 -67 91 -7 4 -13 12 -13 17 0 5 -14
29 -30 52 -17 24 -38 54 -48 68 -9 14 -22 31 -29 38 -7 7 -13 21 -13 29 0 9
-3 13 -6 10 -4 -4 -16 10 -27 31 -11 20 -26 41 -33 45 -8 4 -14 15 -14 22 0 8
-4 15 -10 15 -5 0 -10 5 -10 12 0 10 -35 61 -87 128 -13 15 -23 31 -23 35 0 4
-17 30 -37 58 -21 28 -42 59 -48 68 -18 29 -130 194 -135 199 -10 9 -100 149
-100 155 0 4 -14 27 -32 52 -17 25 -39 68 -49 94 -18 47 -18 49 1 93 18 44 39
61 89 77 14 4 26 8 27 8 0 1 23 -6 50 -15z m-4579 -26 c-3 -7 -5 -2 -5 12 0
14 2 19 5 13 2 -7 2 -19 0 -25z m6558 -70 c10 -18 21 -35 25 -38 6 -6 81 -116
94 -140 21 -37 -37 33 -86 105 -69 102 -71 105 -61 105 5 0 17 -15 28 -32z
m321 -55 c-8 -8 -56 44 -56 60 0 6 14 -4 31 -21 18 -18 29 -36 25 -39z m-63
-186 l18 -32 -25 27 c-27 28 -32 38 -18 38 4 0 15 -15 25 -33z m137 -217 c0
-5 4 -10 8 -10 5 0 16 -19 26 -42 37 -87 48 -108 57 -108 5 0 9 -6 9 -12 0 -7
14 -39 31 -71 16 -32 29 -65 27 -73 -2 -9 -28 36 -58 98 -30 62 -57 115 -60
118 -3 3 -25 43 -49 90 -24 47 -50 92 -57 101 -8 8 -14 22 -14 30 0 8 18 -14
40 -48 22 -34 40 -67 40 -73z m-118 55 c8 -19 12 -32 7 -30 -12 8 -39 65 -30
65 4 0 14 -16 23 -35z m-7302 -58 c0 -5 -4 -5 -10 -2 -5 3 -10 14 -10 23 0 15
2 15 10 2 5 -8 10 -19 10 -23z m-273 -2 c-18 -38 -36 -31 -21 9 3 9 12 16 19
16 10 0 11 -5 2 -25z m288 -35 c3 -5 1 -10 -4 -10 -6 0 -11 5 -11 10 0 6 2 10
4 10 3 0 8 -4 11 -10z m-315 -20 c0 -5 -4 -10 -10 -10 -5 0 -10 5 -10 10 0 6
5 10 10 10 6 0 10 -4 10 -10z m125 -50 c-3 -4 1 -11 7 -13 7 -3 3 -6 -9 -6
-22 -1 -31 18 -17 32 9 9 26 -2 19 -13z m7180 -1 c10 -14 1 -21 -19 -13 -9 3
-13 10 -10 15 7 12 21 11 29 -2z m-7166 -136 c3 -2 -7 -2 -22 -1 -15 1 -28 10
-30 20 -5 16 -3 16 22 1 14 -10 28 -18 30 -20z m-79 6 c15 -28 4 -38 -15 -13
-17 22 -19 34 -5 34 5 0 14 -9 20 -21z m7840 -115 c0 -8 -4 -12 -10 -9 -5 3
-10 10 -10 16 0 5 5 9 10 9 6 0 10 -7 10 -16z m-583 -31 c-3 -10 -5 -4 -5 12
0 17 2 24 5 18 2 -7 2 -21 0 -30z m103 7 c18 -16 19 -20 7 -20 -9 0 -21 9 -27
20 -6 11 -9 20 -7 20 2 0 14 -9 27 -20z m500 -19 c0 -11 4 -21 8 -23 5 -1 5
-14 1 -28 l-7 -25 -1 28 c-1 15 -5 27 -11 27 -5 0 -10 9 -10 20 0 11 5 20 10
20 6 0 10 -9 10 -19z m89 -26 c1 13 7 6 16 -20 8 -22 12 -48 9 -59 -4 -10 -2
-21 3 -25 19 -13 56 -108 61 -156 6 -70 -9 -49 -43 60 -16 50 -32 95 -35 100
-16 24 -40 117 -33 128 5 8 10 1 14 -18 4 -20 7 -23 8 -10z m-62 -82 c-3 -10
-5 -4 -5 12 0 17 2 24 5 18 2 -7 2 -21 0 -30z m-8568 -40 c-7 -21 -14 -32 -16
-25 -5 12 18 74 25 67 2 -2 -2 -21 -9 -42z m8582 -14 c-5 -13 -10 -19 -10 -12
-1 15 10 45 15 40 3 -2 0 -15 -5 -28z m346 -11 c-3 -8 -6 -5 -6 6 -1 11 2 17
5 13 3 -3 4 -12 1 -19z m-9117 -88 c-15 -41 -18 -46 -14 -20 6 39 28 94 32 82
1 -4 -7 -32 -18 -62z m161 37 c-6 -6 -11 -20 -12 -31 0 -12 -3 -15 -6 -8 -3 7
1 27 8 44 7 17 15 26 17 19 2 -7 -1 -18 -7 -24z m544 13 c3 -5 -1 -10 -10 -10
-8 0 -20 -10 -25 -22 -7 -18 -9 -19 -9 -5 -1 18 18 46 31 47 4 0 10 -4 13 -10z
m8435 1 c0 -6 -4 -13 -10 -16 -5 -3 -10 1 -10 9 0 9 5 16 10 16 6 0 10 -4 10
-9z m-9020 -130 c-10 -29 -22 -73 -26 -97 -3 -24 -10 -47 -15 -50 -5 -3 -9
-18 -9 -34 0 -16 -4 -32 -10 -35 -5 -3 -10 -18 -11 -33 0 -15 -3 -21 -6 -14
-5 12 14 95 37 162 4 14 16 52 25 85 19 65 25 78 31 73 2 -3 -5 -28 -16 -57z
m590 29 c0 -5 -5 -10 -11 -10 -5 0 -7 5 -4 10 3 6 8 10 11 10 2 0 4 -4 4 -10z
m-743 -52 c-3 -8 -6 -5 -6 6 -1 11 2 17 5 13 3 -3 4 -12 1 -19z m8964 -8 c5 0
9 -8 9 -18 0 -10 4 -22 9 -27 5 -6 16 -39 26 -75 16 -63 24 -99 45 -205 50
-250 57 -296 45 -283 -5 5 -43 156 -65 263 -6 28 -15 66 -20 85 -34 123 -84
344 -64 278 3 -10 10 -18 15 -18z m-44 -90 c18 -55 25 -123 15 -149 -7 -21
-10 -14 -15 39 -4 35 -11 66 -16 69 -4 3 -11 31 -15 61 -6 48 -5 52 6 35 8
-11 19 -36 25 -55z m-6677 -10 c0 -19 -7 -20 -130 -20 l-130 0 0 -30 0 -30 75
0 c68 0 75 -2 75 -20 0 -17 -8 -19 -72 -22 l-73 -3 0 -35 0 -35 128 -3 c119
-2 127 -4 127 -22 0 -19 -8 -20 -165 -20 l-165 0 0 130 0 130 165 0 c158 0
165 -1 165 -20z m591 10 c17 -10 19 -22 19 -118 0 -71 -4 -112 -12 -120 -7 -7
-31 -12 -55 -12 -46 0 -57 -16 -28 -40 24 -20 18 -30 -19 -30 -29 0 -36 5 -50
35 l-17 35 -92 0 c-59 0 -97 4 -105 12 -16 16 -16 220 0 236 15 15 330 17 359
2z m331 -97 l3 -108 108 -3 107 -3 0 111 0 110 35 0 35 0 0 -118 c0 -78 -4
-122 -12 -130 -8 -8 -59 -12 -162 -12 -193 0 -186 -6 -186 147 l0 113 35 0 34
0 3 -107z m608 -23 l0 -130 -35 0 -35 0 0 130 0 130 35 0 35 0 0 -130z m320
20 l0 -110 120 0 c113 0 120 -1 120 -20 0 -19 -7 -20 -155 -20 l-155 0 0 130
0 130 35 0 35 0 0 -110z m508 -22 l3 -128 -36 0 -35 0 0 131 0 130 33 -3 32
-3 3 -127z m573 122 c27 -15 27 -85 0 -102 -20 -12 -20 -12 0 -26 24 -17 26
-78 2 -104 -14 -16 -34 -18 -175 -18 l-158 0 0 130 0 130 156 0 c88 0 164 -4
175 -10z m581 -7 c13 -11 18 -30 18 -63 0 -54 -12 -68 -64 -77 -20 -3 -36 -9
-36 -13 0 -4 25 -25 55 -45 30 -21 55 -40 55 -42 0 -1 -19 -3 -43 -3 -43 0
-56 7 -133 73 -23 20 -42 27 -73 27 l-41 0 0 -50 0 -50 -35 0 -35 0 0 130 0
130 157 0 c132 0 159 -3 175 -17z m318 -113 l0 -130 -35 0 -35 0 0 130 0 130
35 0 35 0 0 -130z m445 122 c6 -4 48 -62 93 -129 l82 -123 -39 0 c-34 0 -43 5
-58 30 l-17 30 -102 0 c-103 0 -103 0 -124 -30 -16 -22 -29 -30 -52 -30 -21 0
-29 4 -25 13 3 7 42 66 86 130 76 108 84 117 114 117 18 0 37 -4 42 -8z
m-5845 -30 c0 -4 -9 -13 -20 -20 -22 -13 -27 -3 -8 16 14 14 28 16 28 4z
m-313 -109 c-3 -10 -5 -2 -5 17 0 19 2 27 5 18 2 -10 2 -26 0 -35z m8593 -70
c-11 -17 -11 -17 -6 0 3 10 7 28 7 40 2 22 2 22 6 0 2 -12 -1 -30 -7 -40z
m-424 0 c-7 -7 -26 7 -26 19 0 6 6 6 15 -2 9 -7 13 -15 11 -17z m-8199 -15
c-3 -7 -5 -2 -5 12 0 14 2 19 5 13 2 -7 2 -19 0 -25z m-280 -20 c-3 -7 -5 -2
-5 12 0 14 2 19 5 13 2 -7 2 -19 0 -25z m8468 2 c10 -11 24 -20 32 -20 7 0 13
-7 13 -16 0 -13 -4 -13 -31 3 -17 10 -37 26 -46 36 -14 15 -14 17 -1 17 8 0
23 -9 33 -20z m251 -22 c4 -25 2 -29 -5 -18 -11 16 -15 68 -5 58 3 -4 8 -21
10 -40z m206 -5 c-10 -28 -10 -28 -11 12 -1 28 2 36 10 28 8 -8 8 -19 1 -40z
m-8945 -35 c-3 -7 -5 -2 -5 12 0 14 2 19 5 13 2 -7 2 -19 0 -25z m280 -10 c-3
-7 -5 -2 -5 12 0 14 2 19 5 13 2 -7 2 -19 0 -25z m8729 -235 c8 -51 14 -105
12 -120 -6 -42 -14 -13 -33 122 -9 66 -23 142 -32 168 -9 30 -12 58 -7 75 6
22 10 12 26 -63 10 -49 25 -132 34 -182z m-8902 151 c-9 -49 -20 -105 -24
-124 -20 -88 -69 -546 -71 -665 0 -38 -5 -92 -9 -120 -12 -67 -4 243 9 390 23
245 90 629 108 611 2 -2 -3 -44 -13 -92z m-125 22 c-9 -8 -10 -7 -5 7 3 10 7
24 7 30 1 7 3 4 6 -7 3 -10 -1 -23 -8 -30z m646 28 c19 -16 19 -16 -5 -9 -31
9 -50 25 -29 25 7 0 23 -8 34 -16z m-658 -96 c-2 -13 -4 -5 -4 17 -1 22 1 32
4 23 2 -10 2 -28 0 -40z m7047 18 c-3 -9 -10 -16 -15 -16 -5 0 -4 9 3 20 14
22 21 20 12 -4z m-7157 -8 c-3 -8 -6 -5 -6 6 -1 11 2 17 5 13 3 -3 4 -12 1
-19z m310 -40 c-2 -13 -4 -5 -4 17 -1 22 1 32 4 23 2 -10 2 -28 0 -40z m60
-40 c-2 -18 -4 -4 -4 32 0 36 2 50 4 33 2 -18 2 -48 0 -65z m310 50 c-3 -8 -6
-5 -6 6 -1 11 2 17 5 13 3 -3 4 -12 1 -19z m-578 -45 c0 -5 -4 -17 -9 -28 -8
-18 -9 -17 -9 8 -1 15 4 27 9 27 6 0 10 -3 9 -7z m8548 -39 c-3 -3 -12 -4 -19
-1 -8 3 -5 6 6 6 11 1 17 -2 13 -5z m570 -31 c-3 -10 -5 -4 -5 12 0 17 2 24 5
18 2 -7 2 -21 0 -30z m-8860 -35 c-2 -13 -4 -3 -4 22 0 25 2 35 4 23 2 -13 2
-33 0 -45z m-70 5 c-3 -10 -5 -2 -5 17 0 19 2 27 5 18 2 -10 2 -26 0 -35z
m8398 37 c3 -5 1 -10 -4 -10 -6 0 -11 5 -11 10 0 6 2 10 4 10 3 0 8 -4 11 -10z
m-8608 -62 c-2 -13 -4 -5 -4 17 -1 22 1 32 4 23 2 -10 2 -28 0 -40z m8673 -40
c0 -4 -4 -8 -10 -8 -5 0 -10 4 -10 9 0 5 -3 18 -6 28 -5 16 -4 16 10 -1 9 -11
16 -23 16 -28z m-8333 -50 c-3 -7 -5 -2 -5 12 0 14 2 19 5 13 2 -7 2 -19 0
-25z m8353 0 c0 -5 -4 -8 -10 -8 -5 0 -10 10 -10 23 0 18 2 19 10 7 5 -8 10
-18 10 -22z m-8713 -45 c-2 -16 -4 -5 -4 22 0 28 2 40 4 28 2 -13 2 -35 0 -50z
m9110 -15 c-2 -18 -4 -6 -4 27 0 33 2 48 4 33 2 -15 2 -42 0 -60z m230 0 c-2
-18 -4 -6 -4 27 0 33 2 48 4 33 2 -15 2 -42 0 -60z m-9078 -98 c-5 -82 -6 -81
-6 35 0 66 2 104 6 85 3 -19 4 -73 0 -120z m88 28 c-2 -18 -4 -6 -4 27 0 33 2
48 4 33 2 -15 2 -42 0 -60z m-366 -80 c-9 -32 -9 -32 -10 17 0 28 3 61 7 75 6
22 7 19 10 -17 2 -22 -1 -56 -7 -75z m196 55 c-3 -10 -5 -2 -5 17 0 19 2 27 5
18 2 -10 2 -26 0 -35z m163 -325 c-3 -306 12 -594 30 -612 6 -6 10 -25 10 -43
0 -17 7 -58 15 -89 8 -31 12 -69 8 -83 l-7 -26 -7 30 c-4 17 -12 48 -18 70 -6
22 -11 63 -11 90 0 28 -4 55 -10 61 -19 19 -31 252 -30 561 0 287 3 343 17
343 3 0 4 -136 3 -302z m-163 260 c-3 -8 -6 -5 -6 6 -1 11 2 17 5 13 3 -3 4
-12 1 -19z m303 -18 c0 -5 -2 -10 -4 -10 -3 0 -8 5 -11 10 -3 6 -1 10 4 10 6
0 11 -4 11 -10z m-513 -237 c-1 -43 -3 -8 -3 77 0 85 2 120 3 78 2 -43 2 -113
0 -155z m202 -80 c0 -181 -4 -300 -9 -288 -15 35 -9 595 7 595 1 0 3 -138 2
-307z m78 180 c-2 -21 -4 -4 -4 37 0 41 2 58 4 38 2 -21 2 -55 0 -75z m293 88
c0 -5 -7 -11 -15 -15 -8 -3 -15 -12 -15 -21 0 -8 -5 -15 -11 -15 -8 0 -8 -4
-1 -13 11 -13 -7 -47 -26 -47 -23 0 -21 33 4 52 14 11 23 26 20 33 -2 7 1 18
7 24 13 13 37 15 37 2z m-63 -161 c-5 -21 -1 -30 16 -38 20 -10 19 -11 -12
-11 -26 -1 -32 2 -27 15 3 9 6 29 6 45 0 20 4 28 11 23 6 -3 9 -19 6 -34z
m8470 -32 c-3 -7 -5 -2 -5 12 0 14 2 19 5 13 2 -7 2 -19 0 -25z m-422 12 c3
-5 -1 -10 -9 -10 -9 0 -16 5 -16 10 0 6 4 10 9 10 6 0 13 -4 16 -10z m195 -24
c0 -8 -9 -16 -20 -19 -23 -6 -24 -3 -9 24 11 21 29 17 29 -5z m-60 -25 c0 -6
-4 -13 -10 -16 -5 -3 -10 1 -10 9 0 9 5 16 10 16 6 0 10 -4 10 -9z m-90 -15
c0 -3 -4 -8 -10 -11 -5 -3 -10 -1 -10 4 0 6 5 11 10 11 6 0 10 -2 10 -4z m101
-39 c-16 -16 -26 0 -10 19 9 11 15 12 17 4 2 -6 -1 -17 -7 -23z m-34 -233 c-3
-3 -12 -4 -19 -1 -8 3 -5 6 6 6 11 1 17 -2 13 -5z m83 -34 c16 -14 19 -20 8
-20 -8 0 -23 9 -33 20 -10 11 -14 20 -8 20 5 0 20 -9 33 -20z m-916 -9 c6 -5
31 -12 56 -16 24 -4 51 -11 60 -15 8 -5 30 -14 49 -21 18 -7 44 -24 58 -38 33
-35 27 -94 -14 -126 -31 -26 -138 -65 -175 -65 -13 0 -29 -5 -35 -11 -16 -16
-257 -27 -743 -33 -234 -3 -578 -8 -765 -11 -361 -6 -1318 -19 -2550 -35
-1044 -14 -1654 -29 -1692 -41 -34 -11 -66 -48 -76 -87 -4 -18 31 -78 170
-285 97 -144 209 -307 248 -362 39 -55 112 -158 160 -230 49 -71 93 -131 97
-133 4 -2 8 -8 8 -13 0 -6 17 -33 38 -62 36 -49 189 -272 239 -347 12 -19 26
-39 30 -45 41 -53 63 -94 57 -108 -3 -10 -2 -17 2 -17 12 0 34 -72 34 -111 0
-43 -28 -86 -63 -99 -37 -12 -86 -1 -153 37 -74 42 -100 64 -399 348 -24 22
-141 135 -261 251 -121 116 -257 247 -303 290 -167 157 -691 680 -691 690 0 6
-11 21 -25 34 -14 13 -25 29 -25 37 0 7 -4 13 -8 13 -20 0 -112 151 -139 228
-22 64 -21 204 2 257 17 40 60 84 83 85 6 0 12 4 12 8 0 14 64 35 130 43 92
11 6570 1 6584 -10z m-7627 -173 c-2 -18 -4 -4 -4 32 0 36 2 50 4 33 2 -18 2
-48 0 -65z m8543 46 c0 -8 -4 -12 -10 -9 -5 3 -10 10 -10 16 0 5 5 9 10 9 6 0
10 -7 10 -16z m-8523 -216 c-2 -13 -4 -3 -4 22 0 25 2 35 4 23 2 -13 2 -33 0
-45z m387 -13 c-4 -8 -11 -15 -16 -15 -6 0 -5 6 2 15 7 8 14 15 16 15 2 0 1
-7 -2 -15z m-24 -60 c0 -14 -4 -25 -10 -25 -11 0 -14 33 -3 43 11 11 13 8 13
-18z m-346 -10 c3 -8 1 -15 -4 -15 -6 0 -10 7 -10 15 0 8 2 15 4 15 2 0 6 -7
10 -15z m83 -37 c-3 -7 -5 -2 -5 12 0 14 2 19 5 13 2 -7 2 -19 0 -25z m123
-59 c0 -24 -4 -38 -10 -34 -17 10 -11 75 7 75 2 0 3 -18 3 -41z m-193 9 c-3
-8 -6 -5 -6 6 -1 11 2 17 5 13 3 -3 4 -12 1 -19z m93 -9 c0 -11 -4 -17 -10
-14 -5 3 -10 15 -10 26 0 11 5 17 10 14 6 -3 10 -15 10 -26z m7 -51 c-3 -8 -6
-5 -6 6 -1 11 2 17 5 13 3 -3 4 -12 1 -19z m-80 -30 c-3 -7 -5 -2 -5 12 0 14
2 19 5 13 2 -7 2 -19 0 -25z m8730 -5 c-3 -10 -5 -4 -5 12 0 17 2 24 5 18 2
-7 2 -21 0 -30z m-8321 -104 c8 -8 14 -19 14 -24 0 -4 -10 5 -22 21 -13 16
-26 31 -30 32 -5 2 -8 13 -8 25 0 19 2 18 16 -8 8 -16 22 -37 30 -46z m-279
-41 c-3 -8 -6 -5 -6 6 -1 11 2 17 5 13 3 -3 4 -12 1 -19z m363 -51 c0 -6 -9
-2 -20 8 -11 10 -20 23 -20 28 0 6 9 2 20 -8 11 -10 20 -23 20 -28z m3117 -35
c22 -20 73 -65 111 -100 l71 -63 108 100 108 101 95 0 c80 0 92 -2 80 -14 -8
-7 -76 -66 -150 -131 -74 -65 -136 -121 -138 -124 -1 -4 81 -76 183 -161 102
-84 185 -157 185 -161 0 -5 -47 -8 -104 -8 l-104 1 -130 114 c-72 63 -133 114
-137 114 -4 0 -61 -52 -128 -115 l-122 -115 -94 2 -93 3 83 77 c46 42 121 110
166 150 45 40 82 76 82 79 1 3 -73 68 -164 144 -91 76 -165 140 -165 142 0 2
48 3 108 3 l107 -1 42 -37z m1750 -9 l-2 -48 -283 -3 -282 -2 0 -65 0 -65 165
0 165 0 0 -50 0 -50 -165 0 -165 0 0 -77 0 -78 285 3 285 3 0 -61 0 -60 -370
0 -370 0 0 300 0 300 369 0 370 0 -2 -47z m1289 32 c60 -25 66 -55 62 -301 -3
-208 -4 -213 -27 -238 -27 -29 -49 -35 -144 -40 -38 -3 -71 -6 -73 -9 -3 -3
13 -35 35 -71 23 -37 41 -69 41 -72 0 -2 -36 -4 -81 -2 l-81 3 -35 65 c-19 36
-38 68 -42 71 -3 4 -92 9 -196 11 -204 5 -241 14 -267 61 -7 14 -13 89 -15
212 -5 231 4 278 57 306 32 18 63 19 383 19 283 0 354 -3 383 -15z m-6489 -67
c-3 -8 -6 -5 -6 6 -1 11 2 17 5 13 3 -3 4 -12 1 -19z m373 -12 c0 -3 -4 -8
-10 -11 -5 -3 -10 -1 -10 4 0 6 5 11 10 11 6 0 10 -2 10 -4z m2410 -28 c86
-26 130 -96 130 -210 l0 -48 -191 0 -191 0 7 -36 c15 -84 57 -109 180 -109 50
0 108 2 130 5 l40 5 3 -37 c2 -21 0 -38 -5 -38 -4 0 -45 -4 -91 -10 -92 -10
-227 2 -271 25 -79 40 -114 107 -114 220 0 155 61 226 213 249 34 5 117 -4
160 -16z m-2453 -20 c-3 -7 -5 -2 -5 12 0 14 2 19 5 13 2 -7 2 -19 0 -25z
m8210 -30 c-3 -8 -6 -5 -6 6 -1 11 2 17 5 13 3 -3 4 -12 1 -19z m-8590 -30
c-3 -8 -6 -5 -6 6 -1 11 2 17 5 13 3 -3 4 -12 1 -19z m390 -15 c-3 -10 -5 -4
-5 12 0 17 2 24 5 18 2 -7 2 -21 0 -30z m8180 -25 c-3 -7 -5 -2 -5 12 0 14 2
19 5 13 2 -7 2 -19 0 -25z m-8160 -55 c-3 -10 -5 -2 -5 17 0 19 2 27 5 18 2
-10 2 -26 0 -35z m8080 -5 c-3 -8 -6 -5 -6 6 -1 11 2 17 5 13 3 -3 4 -12 1
-19z m60 0 c-3 -8 -6 -5 -6 6 -1 11 2 17 5 13 3 -3 4 -12 1 -19z m-8117 -54
c0 -8 -4 -12 -10 -9 -5 3 -10 10 -10 16 0 5 5 9 10 9 6 0 10 -7 10 -16z m7900
-28 c0 -3 -4 -8 -10 -11 -5 -3 -10 -1 -10 4 0 6 5 11 10 11 6 0 10 -2 10 -4z
m-8246 -32 c3 -8 2 -12 -4 -9 -6 3 -10 10 -10 16 0 14 7 11 14 -7z m136 -91
c0 -2 -4 -3 -9 -3 -5 0 -12 13 -16 30 -4 16 -11 32 -16 35 -5 4 -9 14 -9 23 0
9 11 -5 25 -32 14 -27 25 -51 25 -53z m-123 45 c-3 -8 -6 -5 -6 6 -1 11 2 17
5 13 3 -3 4 -12 1 -19z m23 -39 c0 -6 -4 -7 -10 -4 -5 3 -10 11 -10 16 0 6 5
7 10 4 6 -3 10 -11 10 -16z m15 -29 c3 -5 1 -10 -4 -10 -6 0 -11 5 -11 10 0 6
2 10 4 10 3 0 8 -4 11 -10z m119 -46 c15 -31 25 -58 23 -61 -4 -3 -57 101 -57
112 0 15 11 -1 34 -51z m8133 -16 c-3 -8 -6 -5 -6 6 -1 11 2 17 5 13 3 -3 4
-12 1 -19z m55 -5 c-3 -16 -7 -22 -10 -15 -4 13 4 42 11 42 2 0 2 -12 -1 -27z
m-8262 -42 c0 -9 -7 -3 -15 13 -19 36 -19 47 0 22 8 -11 15 -27 15 -35z m446
1 c-18 -16 -19 -16 -12 1 3 10 6 24 6 30 0 8 4 7 12 -1 10 -9 8 -16 -6 -30z
m-322 -29 c3 -10 15 -33 26 -52 12 -18 19 -38 18 -43 -2 -6 -18 17 -36 51 -17
33 -28 61 -23 61 5 0 11 -8 15 -17z m101 -394 c30 -49 55 -91 55 -94 0 -2 28
-44 62 -92 34 -48 80 -115 102 -148 48 -73 145 -205 163 -223 7 -8 18 -23 24
-34 26 -49 227 -275 376 -425 90 -90 159 -163 153 -163 -5 0 -10 5 -10 10 0 6
-6 10 -13 10 -14 0 -334 317 -364 360 -10 14 -28 36 -41 50 -47 51 -248 322
-359 485 -59 88 -173 274 -173 284 0 5 -10 19 -21 32 -24 27 -169 319 -169
340 0 7 36 -58 80 -145 45 -88 105 -199 135 -247z m7308 386 c-3 -9 -8 -14
-10 -11 -3 3 -2 9 2 15 9 16 15 13 8 -4z m639 -47 c-6 -6 -7 0 -4 19 5 21 7
23 10 9 2 -10 0 -22 -6 -28z m-666 -14 c-10 -14 -20 -23 -23 -21 -2 3 3 17 13
31 9 15 19 24 22 22 2 -3 -3 -17 -12 -32z m34 -89 c41 -9 48 -25 10 -25 -32 0
-79 41 -80 69 0 8 9 2 20 -12 11 -14 34 -28 50 -32z m45 -115 c4 -6 -5 -10
-19 -10 -14 0 -26 5 -26 10 0 6 9 10 19 10 11 0 23 -4 26 -10z m-250 -90 c3
-5 -1 -10 -9 -10 -8 0 -18 5 -21 10 -3 6 1 10 9 10 8 0 18 -4 21 -10z m662
-52 c-3 -8 -6 -5 -6 6 -1 11 2 17 5 13 3 -3 4 -12 1 -19z m-697 -8 c0 -5 -4
-10 -9 -10 -6 0 -13 5 -16 10 -3 6 1 10 9 10 9 0 16 -4 16 -10z m50 -24 c0
-17 38 -28 47 -13 4 6 10 2 14 -11 5 -14 14 -20 24 -16 8 3 15 1 15 -5 0 -6
-5 -11 -11 -11 -7 0 -17 -8 -24 -17 -11 -15 -15 -14 -41 10 -16 15 -35 25 -41
22 -14 -5 -19 36 -6 48 11 12 23 8 23 -7z m633 -1 c-3 -9 -8 -14 -10 -11 -3 3
-2 9 2 15 9 16 15 13 8 -4z m-722 -25 c13 -10 21 -19 18 -20 -9 0 -69 31 -69
36 0 11 30 2 51 -16z m-6762 -183 c13 -21 29 -43 35 -50 17 -16 39 -58 34 -63
-9 -8 -182 242 -194 279 -6 22 81 -95 125 -166z m7453 141 c-28 -55 -143 -240
-169 -271 -32 -40 -29 -18 5 29 15 21 36 56 47 77 11 20 23 37 27 37 5 0 8 5
8 12 0 6 11 26 25 44 14 18 25 35 25 38 0 9 42 77 46 73 2 -2 -4 -19 -14 -39z
m-7075 -30 c-3 -7 -5 -2 -5 12 0 14 2 19 5 13 2 -7 2 -19 0 -25z m6253 13
c-10 -20 -30 -37 -30 -27 0 6 33 46 38 46 1 0 -2 -9 -8 -19z m196 -57 c-6 -31
-56 -100 -56 -77 0 6 7 16 15 23 8 7 15 22 15 34 0 26 23 80 29 65 1 -5 0 -26
-3 -45z m-6460 -32 c-9 -8 -24 41 -18 58 4 9 9 2 15 -19 4 -18 6 -36 3 -39z
m6211 -14 c-3 -8 -6 -5 -6 6 -1 11 2 17 5 13 3 -3 4 -12 1 -19z m-6212 -28 c3
-5 -1 -10 -10 -10 -9 0 -13 5 -10 10 3 6 8 10 10 10 2 0 7 -4 10 -10z m6495
-32 c0 -5 -9 -3 -20 4 -11 7 -20 18 -20 25 0 9 6 7 20 -4 11 -10 20 -21 20
-25z m408 -22 c-13 -19 -24 -33 -26 -32 -5 5 33 66 41 66 4 0 -3 -15 -15 -34z
m-498 -38 c0 -7 -8 -22 -17 -33 -14 -18 -15 -18 -9 -2 3 10 6 25 6 33 0 8 5
14 10 14 6 0 10 -6 10 -12z m-6647 -58 c28 -31 33 -45 18 -54 -8 -5 -61 62
-61 77 0 15 18 6 43 -23z m7076 -12 c-13 -18 -27 -34 -31 -36 -4 -2 -8 -8 -8
-14 0 -6 -18 -33 -40 -60 -22 -28 -40 -46 -40 -40 0 6 6 17 13 24 6 7 25 33
41 58 33 52 79 108 85 104 2 -2 -7 -18 -20 -36z m-22 -110 c-41 -62 -84 -122
-94 -133 -11 -11 -24 -27 -29 -36 -29 -52 -519 -558 -529 -548 -2 3 64 75 148
160 135 137 267 279 338 363 13 16 29 34 34 40 27 29 145 198 145 206 0 6 3
10 8 10 4 0 16 13 27 29 11 17 21 28 24 26 2 -3 -30 -55 -72 -117z m-6978 1
c51 -53 121 -137 121 -144 0 -3 4 -11 10 -18 41 -50 95 -110 152 -169 93 -95
107 -129 18 -43 -84 82 -190 210 -190 231 0 8 -6 14 -14 14 -8 0 -16 4 -18 8
-4 10 -58 78 -105 132 -18 20 -29 40 -26 44 4 4 9 2 12 -5 2 -6 20 -29 40 -50z
m-265 15 c5 -14 4 -15 -9 -4 -17 14 -19 20 -6 20 5 0 12 -7 15 -16z m119 -143
c20 -24 37 -48 37 -53 0 -12 -77 78 -119 137 -16 23 27 -22 82 -84z m6997 25
c0 -3 -4 -8 -10 -11 -5 -3 -10 -1 -10 4 0 6 5 11 10 11 6 0 10 -2 10 -4z m-79
-82 c-22 -26 -41 -50 -41 -54 0 -4 -7 -10 -15 -14 -28 -10 -15 12 37 68 63 66
78 66 19 0z m379 28 c0 -5 -9 -19 -20 -32 -25 -28 -26 -18 -2 15 19 27 22 29
22 17z m-7188 -111 c10 -11 13 -21 8 -21 -5 0 -17 12 -27 28 -10 15 -23 33
-30 40 -7 7 -13 16 -13 20 1 6 18 -13 62 -67z m6025 -43 c-3 -7 -5 -2 -5 12 0
14 2 19 5 13 2 -7 2 -19 0 -25z m-180 -10 c-3 -8 -6 -5 -6 6 -1 11 2 17 5 13
3 -3 4 -12 1 -19z m187 -23 c-4 -8 -8 -15 -10 -15 -2 0 -4 7 -4 15 0 8 4 15
10 15 5 0 7 -7 4 -15z m31 -39 c-39 -40 -45 -42 -45 -22 0 12 71 67 78 61 2
-2 -13 -19 -33 -39z m-218 -18 c-3 -7 -5 -2 -5 12 0 14 2 19 5 13 2 -7 2 -19
0 -25z m157 -12 c-3 -9 -10 -16 -16 -16 -5 0 -20 -12 -35 -26 -31 -31 -42 -25
-16 9 17 24 65 59 71 53 1 -2 0 -11 -4 -20z m-5130 -51 c11 -8 17 -17 14 -21
-7 -6 -48 17 -48 28 0 12 13 9 34 -7z m6086 12 c0 -2 -10 -12 -22 -23 l-23
-19 19 23 c18 21 26 27 26 19z m-60 -61 c0 -2 -8 -10 -17 -17 -16 -13 -17 -12
-4 4 13 16 21 21 21 13z m-5758 -84 c2 -4 19 -15 38 -25 44 -21 25 -22 -24 -2
-20 8 -36 20 -36 25 0 12 17 13 22 2z m5213 -88 c-22 -18 -44 -34 -48 -34 -5
0 -46 -27 -91 -60 -46 -33 -86 -60 -90 -60 -4 0 -52 -29 -106 -65 -54 -36
-103 -65 -109 -65 -5 0 -16 -6 -23 -13 -19 -19 -108 -68 -108 -59 0 7 92 67
160 105 19 11 63 39 96 63 34 24 66 44 71 44 11 0 139 85 160 106 8 8 21 14
29 14 8 0 14 5 14 10 0 6 6 10 13 10 8 0 24 11 37 25 13 14 26 22 29 19 3 -3
-12 -21 -34 -40z m-5852 4 c18 -13 34 -25 37 -28 3 -3 23 -18 45 -35 22 -16
42 -31 45 -34 3 -4 17 -13 31 -21 25 -14 189 -133 213 -155 6 -5 51 -37 99
-69 48 -32 87 -63 87 -68 0 -4 6 -8 14 -8 8 0 16 -7 20 -15 8 -21 3 -19 -46
21 -23 19 -50 41 -58 48 -9 7 -22 15 -30 19 -14 6 -37 21 -64 39 -6 4 -65 47
-131 96 -66 49 -162 119 -212 156 -51 38 -93 70 -93 72 0 8 12 3 43 -18z
m4942 -48 c-3 -5 -12 -10 -18 -10 -7 0 -23 -9 -37 -20 -25 -19 -63 -29 -44
-11 31 30 113 64 99 41z m888 -48 c-27 -19 -77 -59 -113 -87 -69 -55 -229
-170 -270 -194 -120 -69 -263 -146 -309 -168 -266 -124 -590 -251 -736 -288
-27 -7 -113 -30 -190 -50 -154 -41 -222 -54 -570 -115 -168 -29 -303 -37 -545
-29 -148 4 -272 3 -313 -3 -50 -7 -99 -6 -195 6 -70 9 -183 21 -252 27 -68 6
-149 17 -180 25 l-55 14 85 -5 c250 -17 356 -26 396 -36 24 -6 63 -8 86 -5 24
3 230 8 458 9 342 3 430 6 500 20 47 10 108 22 135 27 545 106 858 194 1150
325 17 8 64 28 106 45 66 26 175 82 381 193 26 14 59 35 74 46 15 12 31 21 36
21 5 0 14 4 21 10 43 35 182 143 232 180 33 25 67 52 75 61 7 9 20 15 27 12 8
-3 -5 -19 -34 -41z m-4526 -169 c-2 -21 -4 -6 -4 32 0 39 2 55 4 38 2 -18 2
-50 0 -70z m3213 40 c0 -27 3 -34 15 -29 32 12 13 -13 -25 -33 -56 -29 -69
-26 -37 7 20 20 27 39 27 66 0 22 4 35 10 31 6 -3 10 -22 10 -42z m106 22
c-36 -19 -47 -19 -22 0 11 8 27 15 35 15 9 0 3 -7 -13 -15z m-4101 -93 c-7 -7
-45 29 -45 41 0 6 11 0 25 -13 14 -13 23 -26 20 -28z m1165 21 c-8 -3 -17 -9
-20 -13 -3 -4 -16 -11 -29 -15 -17 -5 -22 -4 -19 6 4 13 39 27 68 27 13 0 13
0 0 -5z m-1100 -78 c25 -16 51 -36 58 -42 7 -7 20 -13 28 -13 8 0 14 -4 14
-10 0 -5 6 -10 13 -10 8 0 22 -9 32 -20 10 -11 27 -22 39 -26 11 -4 40 -19 64
-35 24 -16 49 -29 56 -29 7 0 21 -7 32 -15 19 -14 19 -14 -2 -15 -11 0 -29 7
-40 15 -10 8 -27 15 -38 15 -41 0 -325 190 -326 218 0 14 0 14 70 -33z m3845
21 c-11 -8 -23 -12 -28 -9 -13 8 3 23 26 23 20 0 20 0 2 -14z m-4253 -19 c7
-7 28 -22 46 -32 17 -11 32 -23 32 -27 0 -13 -11 -9 -40 15 -16 12 -39 30 -51
40 -13 9 -18 17 -12 17 6 0 18 -6 25 -13z m3848 -33 c0 -2 -9 0 -20 6 -11 6
-20 13 -20 16 0 2 9 0 20 -6 11 -6 20 -13 20 -16z m-90 -4 c-8 -6 -22 -10 -30
-10 -8 0 -4 6 10 13 27 15 44 12 20 -3z m230 10 c0 -12 -65 -24 -81 -14 -9 5
-7 10 7 15 28 11 74 11 74 -1z m1095 1 c-3 -5 -31 -23 -63 -38 -31 -16 -66
-34 -77 -41 -11 -6 -60 -30 -110 -52 -108 -50 -108 -49 -167 -84 -27 -15 -48
-25 -48 -21 0 15 49 45 139 87 51 24 143 68 205 100 115 58 131 65 121 49z
m-2715 -45 c0 -3 -4 -8 -10 -11 -5 -3 -10 -1 -10 4 0 6 5 11 10 11 6 0 10 -2
10 -4z m-1890 -69 c0 -4 -11 0 -25 10 -13 10 -25 22 -25 26 0 4 11 0 25 -10
13 -10 25 -22 25 -26z m1086 23 c13 0 24 -3 24 -8 0 -4 -18 -6 -40 -4 -22 2
-40 9 -40 14 0 6 7 7 16 4 9 -3 27 -6 40 -6z m2284 0 c0 -5 -5 -10 -11 -10 -5
0 -7 5 -4 10 3 6 8 10 11 10 2 0 4 -4 4 -10z m-2085 -40 c3 -5 -1 -10 -9 -10
-9 0 -16 5 -16 10 0 6 4 10 9 10 6 0 13 -4 16 -10z m-1279 -55 c25 -19 14 -19
-22 0 -16 8 -22 15 -13 15 8 0 24 -7 35 -15z m2247 -17 c4 -12 4 -24 1 -27 -6
-7 -24 20 -24 37 0 21 17 13 23 -10z m-1898 -26 c-8 -8 -65 20 -59 29 3 5 18
2 34 -8 16 -9 27 -19 25 -21z m2433 3 c-3 -3 -9 2 -12 12 -6 14 -5 15 5 6 7
-7 10 -15 7 -18z m-728 -10 c10 -12 10 -15 -3 -15 -8 0 -17 7 -21 15 -3 8 -2
15 3 15 5 0 14 -7 21 -15z m2300 -85 c0 -5 -5 -10 -11 -10 -5 0 -7 5 -4 10 3
6 8 10 11 10 2 0 4 -4 4 -10z m-70 -39 c-8 -6 -17 -8 -21 -5 -4 2 -10 0 -14
-6 -3 -5 -14 -10 -23 -10 -12 1 -10 5 8 15 28 16 76 21 50 6z m-85 -31 c-3 -5
-13 -10 -21 -10 -8 0 -12 5 -9 10 3 6 13 10 21 10 8 0 12 -4 9 -10z m-52 -17
c-7 -2 -19 -2 -25 0 -7 3 -2 5 12 5 14 0 19 -2 13 -5z m-68 -23 c-3 -5 -16
-10 -28 -9 -21 0 -21 1 -2 9 28 12 37 12 30 0z m-3198 -26 c-3 -3 -12 -4 -19
-1 -8 3 -5 6 6 6 11 1 17 -2 13 -5z m78 -20 c39 -15 39 -15 6 -9 -18 3 -40 5
-47 5 -8 0 -14 5 -14 10 0 13 8 13 55 -6z m-191 -19 c25 -19 17 -19 -25 0 -24
10 -28 14 -14 14 11 0 29 -6 39 -14z m279 -12 c-7 -2 -21 -2 -30 0 -10 3 -4 5
12 5 17 0 24 -2 18 -5z m77 -13 c11 -7 7 -10 -17 -10 -17 0 -35 5 -38 10 -8
13 35 13 55 0z m2700 0 c-8 -5 -24 -10 -35 -10 -17 0 -17 2 -5 10 8 5 24 10
35 10 17 0 17 -2 5 -10z m-2590 -21 c19 -5 55 -14 80 -19 91 -19 125 -28 105
-29 -31 -2 -147 21 -245 47 l-35 10 30 1 c17 1 46 -4 65 -10z m2515 4 c-11 -3
-47 -13 -79 -24 -33 -10 -61 -17 -64 -14 -10 10 93 44 133 43 20 0 23 -2 10
-5z m-772 -30 c-13 -2 -35 -2 -50 0 -16 2 -5 4 22 4 28 0 40 -2 28 -4z m567
-23 c-36 -12 -62 -12 -55 0 3 6 23 10 43 9 33 -1 34 -2 12 -9z m-2330 -50 c46
-11 87 -23 90 -27 12 -13 -101 9 -166 32 -78 28 -49 26 76 -5z m2205 10 c-11
-5 -31 -9 -45 -9 -23 0 -23 1 -5 9 11 5 31 9 45 9 23 0 23 -1 5 -9z m-100 -20
c4 -6 -6 -10 -22 -10 -15 0 -39 -3 -53 -6 -22 -4 -21 -3 5 10 36 17 62 20 70
6z m-1050 -20 l30 -8 -35 0 c-19 0 -55 3 -80 7 l-45 8 50 1 c28 0 64 -4 80 -8z
m228 3 c-13 -2 -35 -2 -50 0 -16 2 -5 4 22 4 28 0 40 -2 28 -4z m646 -17 c-2
-2 -26 -6 -54 -10 -34 -4 -43 -3 -30 3 19 9 93 15 84 7z m-169 -36 c-63 -15
-190 -23 -190 -11 0 11 54 17 160 18 55 1 59 0 30 -7z m-262 -17 c-21 -2 -57
-2 -80 0 -24 2 -7 4 37 4 44 0 63 -2 43 -4z"/>
<path d="M3243 6303 l-123 -4 0 -89 0 -90 55 0 c59 0 64 6 40 44 -15 23 -15
24 12 29 15 3 29 2 31 -1 1 -4 11 -22 22 -39 16 -27 26 -33 55 -33 l35 0 0 95
c0 52 -1 94 -2 93 -2 -1 -58 -4 -125 -5z"/>
<path d="M5500 6270 l0 -30 104 0 c96 0 105 2 111 20 3 11 3 24 0 30 -3 6 -51
10 -111 10 l-104 0 0 -30z"/>
<path d="M5504 6186 c-3 -8 -4 -25 -2 -38 3 -22 6 -23 108 -23 104 0 105 0
108 24 6 40 -21 51 -120 51 -68 0 -90 -3 -94 -14z"/>
<path d="M6080 6260 l0 -41 103 3 102 3 0 35 0 35 -102 3 -103 3 0 -41z"/>
<path d="M7023 6240 c-17 -26 -29 -51 -26 -54 7 -7 133 -8 133 -1 0 14 -25 55
-33 55 -6 0 -8 3 -4 6 5 6 -23 44 -33 43 -3 0 -19 -22 -37 -49z"/>
<path d="M6782 3670 l3 -190 118 -3 c64 -1 117 2 117 6 0 4 -13 34 -29 66
l-30 58 53 16 c29 10 57 17 63 17 5 0 29 -36 54 -80 24 -44 47 -80 51 -81 5 0
40 0 78 -1 l71 0 0 188 0 189 -276 3 -275 2 2 -190z"/>
<path d="M3580 3780 c-20 -3 -42 -10 -49 -14 -14 -9 -50 -83 -51 -103 0 -8 37
-13 130 -15 130 -3 130 -3 130 20 0 34 -26 89 -47 100 -28 14 -75 20 -113 12z"/>
<path d="M4075 9604 c-258 -73 -317 -88 -385 -103 -29 -6 -121 -40 -295 -107
-11 -4 -22 -8 -25 -9 -3 -1 -23 -7 -45 -13 -22 -7 -85 -37 -140 -67 -55 -30
-115 -62 -133 -71 -18 -9 -31 -18 -29 -21 2 -2 66 26 141 62 75 36 142 65 148
65 19 0 78 23 78 31 0 4 20 10 45 13 24 4 47 11 50 17 4 5 15 9 25 9 11 0 45
12 77 26 32 14 76 29 98 34 22 4 74 18 115 30 134 38 184 51 253 66 38 7 87
22 110 33 l42 19 -40 0 c-22 0 -62 -6 -90 -14z"/>
<path d="M6553 9613 c9 -2 23 -2 30 0 6 3 -1 5 -18 5 -16 0 -22 -2 -12 -5z"/>
<path d="M3569 9544 c-13 -7 -34 -13 -46 -14 -13 0 -23 -4 -23 -10 0 -5 -18
-13 -40 -16 -22 -4 -40 -10 -40 -15 0 -5 -6 -9 -14 -9 -7 0 -34 -11 -60 -25
-26 -14 -54 -25 -62 -25 -9 0 -27 -9 -41 -20 -14 -11 -33 -20 -42 -20 -23 0
-63 -29 -41 -30 9 0 20 4 25 8 6 5 26 15 45 22 19 7 49 18 65 25 17 7 80 31
140 54 148 57 189 77 173 84 -8 2 -25 -1 -39 -9z"/>
<path d="M4135 9555 c-5 -1 -37 -8 -70 -15 -117 -24 -469 -127 -560 -165 -16
-6 -46 -18 -65 -25 -19 -6 -44 -16 -55 -21 -11 -4 -49 -20 -85 -35 -109 -44
-161 -71 -308 -157 -170 -99 -212 -134 -212 -175 0 -45 23 -45 84 1 44 33 59
51 69 85 15 51 31 59 34 17 3 -33 -32 -71 -134 -147 -29 -21 -53 -41 -53 -44
0 -13 50 12 110 56 75 55 197 135 255 168 100 57 297 144 400 176 28 9 91 30
140 47 178 61 269 89 394 119 131 32 201 57 201 72 0 4 -9 8 -20 8 -10 0 -24
9 -30 20 -8 15 -20 20 -48 19 -20 0 -41 -2 -47 -4z"/>
<path d="M6744 9551 c3 -5 20 -11 37 -13 29 -5 30 -4 14 9 -21 14 -59 18 -51
4z"/>
<path d="M6840 9518 c14 -5 40 -16 58 -24 18 -8 43 -14 55 -14 22 1 -14 17
-88 41 -39 12 -57 10 -25 -3z"/>
<path d="M6720 9470 c-12 -9 -8 -11 17 -6 21 3 33 1 36 -8 4 -9 15 -12 33 -8
17 3 25 1 21 -5 -7 -12 8 -18 123 -54 41 -12 103 -37 136 -55 34 -18 65 -30
68 -27 3 4 6 -1 6 -11 0 -9 4 -15 8 -12 5 3 15 -4 22 -15 8 -10 22 -19 32 -19
9 0 20 -5 23 -11 4 -6 14 -8 22 -5 8 3 11 1 8 -4 -3 -6 5 -10 19 -10 14 0 26
-4 26 -10 0 -5 9 -10 20 -10 11 0 20 -4 20 -10 0 -5 6 -10 13 -10 7 0 21 -11
31 -25 14 -18 25 -24 39 -19 13 4 17 2 13 -5 -5 -7 1 -11 14 -11 22 0 38 -10
72 -47 12 -13 26 -23 31 -23 5 0 47 -25 94 -55 46 -31 89 -52 95 -49 7 5 8 2
4 -5 -9 -15 21 -51 42 -51 12 0 12 3 1 18 -13 15 -12 16 3 4 9 -8 15 -19 12
-25 -2 -7 19 -28 48 -47 29 -19 64 -45 78 -58 14 -12 45 -35 70 -49 65 -38
186 -131 255 -197 102 -98 165 -156 169 -156 1 0 2 9 1 19 -2 25 -169 214
-241 271 -11 8 -45 37 -77 63 -33 26 -63 47 -67 47 -5 0 -33 22 -62 50 -29 27
-68 54 -85 60 -18 7 -33 15 -33 19 0 5 -20 19 -45 32 -25 13 -45 27 -45 31 0
5 -5 8 -11 8 -6 0 -28 13 -48 29 -20 15 -56 38 -80 51 -24 12 -71 41 -105 64
-33 24 -106 66 -161 93 -55 28 -116 60 -135 72 -19 11 -42 21 -51 21 -9 0 -22
7 -29 15 -7 8 -19 15 -27 15 -9 0 -49 16 -90 35 -41 19 -78 35 -83 35 -8 0
-96 36 -122 50 -28 15 -112 22 -128 10z m1150 -590 c0 -5 -4 -10 -10 -10 -5 0
-10 5 -10 10 0 6 5 10 10 10 6 0 10 -4 10 -10z m110 -50 c0 -5 -4 -10 -10 -10
-5 0 -10 5 -10 10 0 6 5 10 10 10 6 0 10 -4 10 -10z"/>
<path d="M7085 9420 c3 -5 13 -10 21 -10 8 0 12 5 9 10 -3 6 -13 10 -21 10 -8
0 -12 -4 -9 -10z"/>
<path d="M7208 9358 c6 -6 18 -8 28 -6 14 3 12 5 -9 10 -19 3 -25 2 -19 -4z"/>
<path d="M2910 9230 c-9 -6 -10 -10 -3 -10 6 0 15 5 18 10 8 12 4 12 -15 0z"/>
<path d="M2990 9200 c0 -5 5 -10 10 -10 6 0 10 5 10 10 0 6 -4 10 -10 10 -5 0
-10 -4 -10 -10z"/>
<path d="M2808 9193 c7 -3 16 -2 19 1 4 3 -2 6 -13 5 -11 0 -14 -3 -6 -6z"/>
<path d="M2840 9190 c0 -5 4 -10 9 -10 6 0 13 5 16 10 3 6 -1 10 -9 10 -9 0
-16 -4 -16 -10z"/>
<path d="M7240 9175 c7 -8 17 -15 22 -15 6 0 5 7 -2 15 -7 8 -17 15 -22 15 -6
0 -5 -7 2 -15z"/>
<path d="M4585 9160 c-35 -6 -37 -8 -17 -15 12 -4 22 -11 22 -16 0 -5 7 -9 15
-9 8 0 15 5 15 11 0 8 6 7 18 -2 16 -13 16 -12 3 4 -13 16 -13 20 0 28 17 10
7 10 -56 -1z"/>
<path d="M5640 9150 c0 -5 5 -10 10 -10 6 0 10 5 10 10 0 6 -4 10 -10 10 -5 0
-10 -4 -10 -10z"/>
<path d="M7625 9130 c-3 -5 1 -10 9 -10 9 0 16 5 16 10 0 6 -4 10 -9 10 -6 0
-13 -4 -16 -10z"/>
<path d="M4015 9053 c-56 -12 -215 -82 -215 -95 0 -12 9 -10 70 13 30 12 64
25 75 29 11 4 31 12 45 18 31 13 64 22 110 29 19 3 37 7 39 9 6 5 -98 3 -124
-3z"/>
<path d="M2698 8981 c-37 -32 -120 -85 -190 -121 -27 -14 -76 -49 -110 -79
-35 -29 -77 -59 -94 -67 -18 -7 -46 -25 -63 -40 -35 -29 -55 -27 -23 3 39 36
67 53 79 49 8 -3 10 1 6 11 -4 10 -2 14 4 10 6 -4 30 13 54 37 24 24 91 74
149 110 116 72 149 96 135 96 -20 0 -213 -124 -307 -196 -29 -23 -92 -77 -141
-120 -48 -43 -104 -93 -125 -111 -20 -17 -34 -35 -29 -39 4 -4 21 6 39 22 31
29 31 29 12 2 -18 -25 -73 -61 -59 -38 3 5 -1 10 -9 10 -9 0 -16 4 -16 10 0
11 -34 -15 -87 -66 -18 -17 -35 -29 -38 -26 -3 3 -5 1 -5 -5 0 -5 3 -12 6 -16
5 -5 15 2 88 65 17 15 34 28 39 28 20 0 0 -23 -72 -83 -43 -36 -96 -87 -117
-114 -22 -26 -75 -84 -119 -128 -112 -112 -157 -166 -171 -206 -7 -23 -17 -33
-28 -31 -21 4 -43 -18 -52 -52 -7 -28 12 -38 22 -11 5 12 9 12 31 -2 24 -16
26 -16 38 0 7 9 18 17 25 17 8 0 10 8 6 26 -6 21 -4 25 9 21 15 -6 71 45 225
209 105 110 265 251 359 314 21 14 91 70 157 126 112 94 205 167 289 224 20
14 42 30 48 36 7 5 20 13 29 17 24 9 45 46 52 95 7 50 -1 53 -46 13z m-408
-375 c0 -3 -15 -15 -32 -27 l-33 -23 24 27 c22 24 41 35 41 23z"/>
<path d="M7880 8972 c0 -5 7 -13 16 -16 10 -4 14 -1 12 6 -5 15 -28 23 -28 10z"/>
<path d="M2702 8849 c-59 -25 -268 -176 -366 -264 -48 -43 -138 -115 -168
-135 -21 -14 -38 -28 -38 -32 0 -5 -5 -8 -11 -8 -32 0 -509 -468 -509 -499 0
-6 -6 -11 -12 -11 -16 0 -58 -44 -58 -60 0 -7 -7 -10 -15 -6 -20 7 -20 -27 0
-44 13 -10 15 -9 15 9 0 11 5 21 10 21 6 0 10 -4 10 -9 0 -18 -35 -71 -47 -71
-8 0 -10 -11 -6 -35 3 -21 1 -35 -5 -35 -14 0 -26 -48 -23 -88 1 -18 -1 -38
-6 -45 -5 -7 -18 -41 -29 -76 -10 -34 -28 -73 -39 -86 -50 -56 -58 -90 -19
-82 14 2 38 -2 53 -9 38 -20 48 -17 55 16 4 20 11 30 24 30 39 0 57 44 21 53
-13 3 -19 12 -17 24 2 15 -4 18 -34 18 -20 0 -40 3 -44 8 -4 4 -2 7 4 7 7 0
12 9 12 20 0 17 3 18 26 10 35 -14 74 -2 74 21 0 10 7 19 15 19 16 0 18 8 15
53 -1 15 3 27 9 27 6 0 11 -12 11 -26 0 -14 4 -23 10 -19 6 3 10 15 10 26 0
10 7 19 15 19 20 0 19 -13 -5 -52 -11 -18 -20 -39 -20 -45 0 -21 31 -15 37 7
6 22 28 22 28 0 0 -7 6 -15 13 -17 14 -5 16 13 2 22 -16 10 -12 28 4 22 9 -4
17 2 21 13 3 10 12 21 20 24 8 3 15 13 15 22 0 9 11 25 25 36 14 11 25 24 25
30 0 5 14 27 30 48 17 21 30 44 30 52 0 18 57 104 103 153 39 42 52 45 16 4
-11 -13 -28 -33 -37 -44 -9 -11 -32 -52 -51 -90 -18 -39 -37 -78 -42 -87 -11
-22 -11 -28 -1 -28 4 0 27 30 51 68 24 37 70 92 102 123 33 31 59 60 59 65 0
6 14 23 30 39 30 28 44 20 15 -9 -8 -8 -15 -17 -15 -21 0 -4 -7 -13 -15 -21
-26 -26 -16 -39 10 -14 14 13 25 27 25 32 0 11 38 48 50 48 5 0 7 6 4 14 -10
25 134 135 157 120 5 -3 6 2 3 10 -7 19 12 22 20 4 4 -9 5 -8 5 2 -2 31 1 42
13 38 13 -5 64 49 55 58 -7 7 -51 -21 -113 -73 -28 -24 -55 -43 -59 -43 -5 0
-33 -25 -63 -56 -30 -30 -56 -53 -58 -51 -12 11 159 166 184 167 6 0 12 4 12
9 0 18 93 87 98 73 3 -10 7 -10 18 -1 10 8 11 16 3 33 -10 17 -9 19 2 9 16
-16 29 -17 29 -3 0 21 53 60 72 54 13 -4 21 1 26 16 4 12 12 21 17 21 6 -1 10
3 10 8 0 5 3 13 8 17 4 4 7 0 7 -9 0 -9 5 -17 10 -17 15 0 12 11 -7 32 -14 16
-14 18 0 18 17 0 63 57 53 67 -3 3 -17 -2 -30 -11 -44 -29 -52 -17 -11 16 74
60 120 106 113 113 -4 4 -26 -6 -50 -22 -24 -16 -59 -36 -78 -43 -19 -7 -75
-41 -125 -75 -114 -77 -115 -78 -115 -68 0 5 16 17 35 27 19 11 35 23 35 28 0
4 5 8 12 8 6 0 21 9 32 19 25 23 77 55 126 77 52 24 121 76 116 88 -2 6 -9 10
-15 8 -7 -1 -1 13 13 31 14 19 23 36 20 40 -8 8 -167 -77 -193 -104 -20 -20
-97 -79 -104 -79 -11 0 -212 -143 -287 -205 -30 -24 -64 -49 -75 -54 -30 -13
-203 -165 -250 -219 -22 -25 -62 -71 -90 -103 -27 -31 -72 -85 -100 -120 -27
-35 -53 -66 -58 -67 -9 -5 -37 -57 -37 -71 0 -5 16 -20 37 -32 l36 -22 25 29
c14 16 45 52 71 80 25 29 66 76 91 105 40 47 145 160 368 394 76 80 125 120
162 129 20 6 18 3 -10 -15 -63 -41 -161 -131 -203 -188 -23 -31 -82 -96 -131
-146 -179 -180 -354 -394 -341 -415 3 -5 -4 -12 -16 -15 -14 -5 -28 0 -44 15
-15 14 -25 18 -30 11 -10 -17 -25 -3 -18 16 4 11 2 14 -8 11 -7 -2 -20 -26
-28 -51 -8 -26 -18 -47 -23 -47 -11 0 -10 24 1 52 5 13 15 44 22 69 9 33 30
65 76 114 35 37 63 71 63 75 0 5 15 24 33 43 17 19 62 70 100 115 73 87 247
246 300 275 17 9 64 43 102 76 57 48 179 134 289 204 10 7 35 25 55 41 20 16
68 49 106 75 39 25 73 48 77 51 3 3 10 18 13 33 6 24 5 26 -11 20 -22 -9 -158
-96 -194 -124 -49 -38 -102 -70 -107 -66 -3 3 6 11 19 18 12 6 39 27 59 45 21
17 77 59 125 93 107 73 129 90 123 95 -2 2 -23 -5 -47 -15z m-7 -209 c-7 -11
-99 -60 -112 -60 -11 1 99 70 110 70 4 0 5 -5 2 -10z m-105 -185 c0 -3 -15
-11 -32 -19 -18 -7 -43 -23 -55 -35 -13 -12 -23 -17 -23 -12 0 5 15 20 33 32
17 13 34 27 35 31 4 9 42 11 42 3z m-148 -115 c-32 -30 -66 -43 -38 -15 8 8
19 15 24 15 5 0 15 7 22 15 7 8 15 15 19 15 3 0 -9 -14 -27 -30z m-69 -38
c-63 -40 -236 -197 -266 -241 -9 -14 -19 -22 -23 -18 -12 12 91 120 190 199
54 43 101 76 104 73 4 -3 1 -9 -5 -13z m-273 -57 c0 -3 -17 -20 -37 -39 -73
-66 -113 -98 -113 -90 0 5 15 20 32 34 18 14 48 42 68 62 32 33 50 45 50 33z
m-160 -139 c0 -7 -113 -117 -116 -113 -5 5 99 116 109 117 4 0 7 -2 7 -4z
m116 -91 c-9 -9 -16 -13 -16 -8 0 5 5 14 12 21 6 6 14 10 16 7 2 -2 -3 -11
-12 -20z m-275 -78 l-23 -22 17 28 c10 15 20 25 23 22 3 -3 -5 -16 -17 -28z
m-32 -279 c-13 -18 -27 -35 -32 -37 -4 -2 -12 -14 -17 -27 -9 -24 -30 -33 -30
-14 0 27 91 136 98 118 2 -4 -7 -22 -19 -40z m-209 -168 c0 -5 -4 -10 -10 -10
-5 0 -10 5 -10 10 0 6 5 10 10 10 6 0 10 -4 10 -10z m-30 -102 c0 -4 -16 -8
-36 -8 -19 0 -33 4 -30 8 3 5 19 9 36 9 16 0 30 -4 30 -9z"/>
<path d="M3200 8770 c-8 -5 -11 -12 -7 -16 4 -4 13 -2 19 4 15 15 7 24 -12 12z"/>
<path d="M3145 8731 c-16 -8 -32 -17 -35 -21 -3 -3 -31 -25 -62 -49 -32 -23
-58 -46 -58 -51 0 -14 9 -12 38 9 15 10 45 26 67 37 22 10 43 22 46 27 3 5 15
7 25 5 13 -2 19 3 20 19 2 34 -9 40 -41 24z"/>
<path d="M3235 8730 c3 -5 13 -10 21 -10 8 0 12 5 9 10 -3 6 -13 10 -21 10 -8
0 -12 -4 -9 -10z"/>
<path d="M8296 8671 c-3 -5 1 -11 9 -15 8 -3 15 -1 15 4 0 13 -18 22 -24 11z"/>
<path d="M8337 8623 c9 -22 33 -52 111 -133 34 -36 59 -56 56 -46 -5 12 -4 17
3 13 6 -4 14 -19 17 -33 9 -33 29 -54 53 -54 13 0 14 -3 5 -8 -10 -7 -8 -12 5
-25 25 -22 49 -7 34 21 -6 11 -17 22 -26 26 -8 3 -15 9 -15 14 0 12 -71 86
-103 107 -15 9 -27 24 -27 31 0 8 -6 14 -12 14 -7 0 -22 13 -32 29 -11 16 -32
36 -48 45 -26 16 -27 16 -21 -1z"/>
<path d="M1904 8548 l-19 -23 23 19 c21 18 27 26 19 26 -2 0 -12 -10 -23 -22z"/>
<path d="M2706 8529 c-11 -10 -16 -22 -13 -26 7 -6 36 25 37 40 0 10 -2 9 -24
-14z"/>
<path d="M7560 8517 c0 -10 8 -17 18 -17 9 0 13 4 7 8 -5 4 -13 11 -17 16 -5
5 -8 2 -8 -7z"/>
<path d="M1854 8499 c-19 -22 -19 -22 4 -10 12 6 22 16 22 21 0 15 -5 12 -26
-11z"/>
<path d="M7625 8474 c63 -59 167 -143 186 -149 10 -4 19 -11 19 -16 0 -5 4 -9
9 -9 5 0 22 -12 38 -27 39 -38 85 -73 96 -73 12 0 407 -397 407 -409 0 -5 9
-13 20 -16 11 -3 20 -11 20 -16 0 -6 22 -36 50 -67 27 -31 60 -72 72 -91 13
-19 29 -36 36 -39 23 -7 -4 35 -82 128 -39 47 -79 96 -87 110 -47 73 -433 460
-459 460 -10 0 -28 11 -41 23 -57 57 -189 155 -249 186 l-65 34 30 -29z"/>
<path d="M2668 8431 c-29 -16 -38 -41 -15 -41 12 1 53 49 45 54 -1 2 -15 -4
-30 -13z"/>
<path d="M1823 8389 c-51 -48 -56 -61 -9 -26 18 15 37 23 41 19 3 -4 5 0 3 8
-1 8 2 14 9 13 7 -2 10 4 7 12 -4 8 -7 15 -8 15 0 0 -20 -19 -43 -41z"/>
<path d="M2790 8404 c0 -22 2 -24 14 -14 8 6 12 18 9 26 -9 23 -23 16 -23 -12z"/>
<path d="M8527 8319 c12 -12 25 -20 28 -17 3 3 -7 13 -22 23 l-28 17 22 -23z"/>
<path d="M1742 8270 c-24 -28 -51 -50 -60 -50 -15 1 -15 2 1 11 9 5 17 15 17
22 0 7 -33 -24 -72 -67 -78 -85 -149 -181 -141 -189 2 -3 39 32 81 78 43 45
112 115 155 155 71 66 89 90 70 90 -5 0 -28 -23 -51 -50z"/>
<path d="M1724 8288 l-19 -23 23 19 c21 18 27 26 19 26 -2 0 -12 -10 -23 -22z"/>
<path d="M8670 8271 c0 -5 5 -13 10 -16 6 -3 10 -2 10 4 0 5 -4 13 -10 16 -5
3 -10 2 -10 -4z"/>
<path d="M8700 8252 c0 -12 19 -26 26 -19 2 2 -2 10 -11 17 -9 8 -15 8 -15 2z"/>
<path d="M8600 8226 c0 -15 38 -57 44 -48 3 5 -6 20 -19 32 -14 13 -25 20 -25
16z"/>
<path d="M8676 8208 c10 -14 21 -24 23 -22 3 3 -6 15 -18 27 l-24 22 19 -27z"/>
<path d="M8736 8208 c3 -5 10 -6 15 -3 13 9 11 12 -6 12 -8 0 -12 -4 -9 -9z"/>
<path d="M8805 8150 c-3 -5 8 -24 24 -42 17 -18 31 -30 31 -26 0 4 -11 19 -25
34 -13 14 -22 30 -19 35 3 5 3 9 0 9 -3 0 -7 -4 -11 -10z"/>
<path d="M8768 8106 c17 -19 35 -43 40 -53 6 -10 14 -15 18 -11 8 9 -63 98
-78 98 -5 0 4 -15 20 -34z"/>
<path d="M1462 8098 c-7 -7 -12 -16 -12 -20 0 -15 15 -8 28 12 13 22 3 27 -16
8z"/>
<path d="M8720 8090 c0 -5 5 -10 11 -10 5 0 7 5 4 10 -3 6 -8 10 -11 10 -2 0
-4 -4 -4 -10z"/>
<path d="M2278 8053 c-10 -2 -18 -8 -18 -13 0 -4 9 -6 20 -3 11 3 20 9 20 14
0 5 -1 8 -2 8 -2 -1 -11 -3 -20 -6z"/>
<path d="M8750 8056 c0 -1 11 -15 25 -30 29 -31 32 -27 9 9 -14 21 -34 34 -34
21z"/>
<path d="M2206 8005 c-11 -8 -15 -15 -10 -15 6 0 19 7 30 15 10 8 15 14 9 14
-5 0 -19 -6 -29 -14z"/>
<path d="M8840 7992 c0 -10 68 -101 97 -130 7 -7 13 -17 13 -22 0 -5 6 -15 13
-22 20 -21 147 -197 147 -204 0 -3 14 -26 30 -51 17 -24 30 -48 30 -54 0 -5 3
-9 8 -9 4 0 18 -25 32 -55 14 -30 28 -55 31 -55 14 0 108 -150 152 -240 26
-52 47 -90 47 -84 0 13 -41 117 -50 124 -3 3 -21 34 -39 70 -87 166 -203 341
-369 560 -121 158 -142 184 -142 172z"/>
<path d="M8900 7976 c0 -2 8 -10 18 -17 15 -13 16 -12 3 4 -13 16 -21 21 -21
13z"/>
<path d="M8950 7972 c0 -12 18 -41 60 -95 8 -11 36 -43 63 -70 26 -28 47 -59
47 -69 0 -10 5 -18 10 -18 6 0 10 -5 10 -10 0 -6 23 -40 50 -76 28 -36 50 -69
50 -75 0 -5 7 -9 15 -9 10 0 12 -6 8 -17 -6 -16 -5 -17 11 -3 11 8 14 16 7 18
-6 2 -11 10 -11 18 0 8 -6 11 -16 7 -10 -4 -15 -1 -13 8 3 17 -21 69 -32 69
-4 0 -12 12 -18 28 -15 37 -29 57 -79 111 -24 25 -54 62 -67 81 -36 54 -94
117 -95 102z"/>
<path d="M1320 7881 c0 -6 5 -13 10 -16 6 -3 10 1 10 9 0 9 -4 16 -10 16 -5 0
-10 -4 -10 -9z"/>
<path d="M1417 7864 c-9 -10 2 -24 19 -24 8 0 14 7 14 15 0 15 -21 21 -33 9z"/>
<path d="M1466 7845 c-19 -29 -21 -56 -4 -52 7 1 14 -8 16 -20 4 -28 13 -29
29 -3 11 16 10 21 -5 29 -14 8 -15 13 -4 30 26 44 -3 60 -32 16z"/>
<path d="M1296 7853 c-9 -9 -7 -33 3 -33 12 0 22 28 12 34 -5 3 -11 3 -15 -1z"/>
<path d="M1385 7830 c-3 -5 -2 -10 4 -10 5 0 13 5 16 10 3 6 2 10 -4 10 -5 0
-13 -4 -16 -10z"/>
<path d="M1260 7785 c0 -8 5 -15 10 -15 6 0 10 7 10 15 0 8 -4 15 -10 15 -5 0
-10 -7 -10 -15z"/>
<path d="M1364 7782 c-10 -15 -8 -18 12 -20 26 -2 27 -1 18 22 -8 21 -17 20
-30 -2z"/>
<path d="M1422 7768 c-7 -7 -12 -21 -12 -32 1 -20 2 -20 14 -4 15 20 26 14 26
-15 0 -16 2 -17 15 -7 16 14 11 49 -9 62 -15 10 -20 10 -34 -4z"/>
<path d="M1325 7720 c4 -19 2 -36 -5 -45 -19 -23 4 -18 33 8 30 25 34 37 13
37 -8 0 -16 7 -20 15 -11 29 -28 16 -21 -15z"/>
<path d="M1255 7689 c-16 -16 -25 -29 -18 -29 6 0 19 7 27 16 15 14 16 14 16
-2 0 -12 3 -15 10 -8 6 6 7 19 3 31 -8 19 -9 19 -38 -8z"/>
<path d="M8336 7642 c-2 -4 6 -12 19 -18 22 -11 23 -10 12 7 -13 20 -23 24
-31 11z"/>
<path d="M8290 7629 c0 -21 38 -64 74 -83 45 -24 61 -11 21 18 -16 11 -42 33
-56 49 -29 29 -39 33 -39 16z"/>
<path d="M1159 7548 c-118 -132 -134 -180 -62 -191 28 -5 41 -2 53 11 31 33
150 221 150 236 0 12 -10 16 -38 16 -34 0 -44 -7 -103 -72z"/>
<path d="M1112 7543 c-64 -63 -105 -117 -80 -108 8 3 22 18 31 34 9 16 34 44
54 62 37 32 69 69 59 69 -2 0 -31 -26 -64 -57z"/>
<path d="M1423 7577 c-13 -13 -23 -28 -23 -34 0 -5 -9 -22 -20 -36 -17 -21
-18 -30 -9 -51 19 -42 38 -41 32 2 -3 27 -2 33 6 22 11 -17 11 -17 34 33 17
39 23 87 10 86 -5 0 -18 -10 -30 -22z"/>
<path d="M1047 7546 c-15 -14 -27 -31 -27 -38 0 -7 14 3 31 21 36 40 33 51 -4
17z"/>
<path d="M8590 7541 c0 -5 4 -11 8 -13 5 -1 29 -34 53 -73 23 -38 46 -72 49
-75 3 -3 16 -26 29 -52 13 -27 28 -48 32 -48 11 0 12 17 1 24 -4 2 -23 34 -41
70 -19 36 -52 86 -73 112 -21 25 -38 50 -38 55 0 5 -4 9 -10 9 -5 0 -10 -4
-10 -9z"/>
<path d="M9350 7545 c0 -5 5 -17 10 -25 5 -8 10 -10 10 -5 0 6 -5 17 -10 25
-5 8 -10 11 -10 5z"/>
<path d="M9286 7514 c-8 -21 -8 -24 3 -24 12 0 22 28 12 35 -5 3 -12 -2 -15
-11z"/>
<path d="M1580 7480 c0 -5 5 -10 11 -10 5 0 7 5 4 10 -3 6 -8 10 -11 10 -2 0
-4 -4 -4 -10z"/>
<path d="M1351 7434 c0 -11 3 -14 6 -6 3 7 2 16 -1 19 -3 4 -6 -2 -5 -13z"/>
<path d="M9406 7430 c7 -25 33 -70 40 -70 6 0 -16 52 -32 73 -16 22 -16 22 -8
-3z"/>
<path d="M1741 7424 c0 -11 3 -14 6 -6 3 7 2 16 -1 19 -3 4 -6 -2 -5 -13z"/>
<path d="M1570 7415 c0 -8 5 -15 10 -15 6 0 10 7 10 15 0 8 -4 15 -10 15 -5 0
-10 -7 -10 -15z"/>
<path d="M715 7266 c-32 -69 -33 -96 -1 -35 23 47 38 89 30 89 -2 0 -15 -24
-29 -54z"/>
<path d="M8785 7246 c10 -14 19 -26 22 -26 7 0 -17 39 -28 46 -6 3 -3 -5 6
-20z"/>
<path d="M1531 7234 c0 -11 3 -14 6 -6 3 7 2 16 -1 19 -3 4 -6 -2 -5 -13z"/>
<path d="M8810 7200 c0 -5 5 -10 10 -10 6 0 10 5 10 10 0 6 -4 10 -10 10 -5 0
-10 -4 -10 -10z"/>
<path d="M741 7094 c0 -11 3 -14 6 -6 3 7 2 16 -1 19 -3 4 -6 -2 -5 -13z"/>
<path d="M715 7061 c-9 -40 -2 -49 12 -18 6 13 8 30 3 37 -5 8 -10 2 -15 -19z"/>
<path d="M9440 7040 c0 -5 5 -10 10 -10 6 0 10 5 10 10 0 6 -4 10 -10 10 -5 0
-10 -4 -10 -10z"/>
<path d="M8942 6998 c7 -12 19 -28 26 -36 6 -7 12 -20 12 -28 0 -8 5 -14 11
-14 5 0 -2 23 -17 50 -15 28 -31 50 -36 50 -4 0 -3 -10 4 -22z"/>
<path d="M701 6984 c0 -11 3 -14 6 -6 3 7 2 16 -1 19 -3 4 -6 -2 -5 -13z"/>
<path d="M8810 6980 c0 -5 5 -10 10 -10 6 0 10 5 10 10 0 6 -4 10 -10 10 -5 0
-10 -4 -10 -10z"/>
<path d="M9690 6794 c0 -8 5 -12 10 -9 6 4 8 11 5 16 -9 14 -15 11 -15 -7z"/>
<path d="M9080 6691 c0 -5 5 -13 10 -16 6 -3 10 -2 10 4 0 5 -4 13 -10 16 -5
3 -10 2 -10 -4z"/>
<path d="M9791 6074 c0 -11 3 -14 6 -6 3 7 2 16 -1 19 -3 4 -6 -2 -5 -13z"/>
<path d="M9280 5416 c0 -2 7 -7 16 -10 8 -3 12 -2 9 4 -6 10 -25 14 -25 6z"/>
<path d="M980 4700 c0 -5 5 -10 11 -10 5 0 7 5 4 10 -3 6 -8 10 -11 10 -2 0
-4 -4 -4 -10z"/>
<path d="M9381 4444 c0 -11 3 -14 6 -6 3 7 2 16 -1 19 -3 4 -6 -2 -5 -13z"/>
<path d="M9235 4290 c-3 -5 -1 -10 4 -10 6 0 11 5 11 10 0 6 -2 10 -4 10 -3 0
-8 -4 -11 -10z"/>
<path d="M1056 4275 c4 -8 8 -15 10 -15 2 0 4 7 4 15 0 8 -4 15 -10 15 -5 0
-7 -7 -4 -15z"/>
<path d="M9305 4090 c-4 -23 -5 -43 -2 -46 2 -3 7 14 11 37 4 23 5 44 2 46 -2
2 -7 -14 -11 -37z"/>
<path d="M9207 4093 c-4 -3 -7 -11 -7 -17 0 -6 5 -5 12 2 6 6 9 14 7 17 -3 3
-9 2 -12 -2z"/>
<path d="M9131 4029 c-42 -46 -64 -142 -45 -193 10 -25 33 -19 40 12 3 15 12
43 20 62 8 19 12 48 9 64 -12 59 -9 72 9 56 8 -6 12 -19 9 -27 -4 -11 -2 -14
5 -9 7 4 12 20 12 37 0 39 -23 38 -59 -2z"/>
<path d="M9202 3790 c0 -14 2 -19 5 -12 2 6 2 18 0 25 -3 6 -5 1 -5 -13z"/>
<path d="M9136 3592 c-4 -13 -5 -26 -2 -29 10 -11 18 4 14 29 l-4 23 -8 -23z"/>
<path d="M1340 3480 c0 -13 5 -18 14 -14 8 3 12 12 9 20 -8 21 -23 17 -23 -6z"/>
<path d="M1356 3444 c-9 -24 -7 -28 9 -14 17 14 20 30 6 30 -5 0 -12 -7 -15
-16z"/>
<path d="M9121 3434 c0 -11 3 -14 6 -6 3 7 2 16 -1 19 -3 4 -6 -2 -5 -13z"/>
<path d="M1253 3405 c-8 -22 6 -33 17 -15 13 20 12 30 0 30 -6 0 -13 -7 -17
-15z"/>
<path d="M1271 3377 c-13 -17 -5 -28 17 -20 12 5 14 1 9 -17 -6 -23 21 -100
35 -100 14 0 8 21 -12 47 -12 15 -18 34 -15 44 4 11 0 28 -8 39 -12 17 -16 18
-26 7z"/>
<path d="M1365 3189 c-4 -6 -5 -12 -2 -15 2 -3 7 2 10 11 7 17 1 20 -8 4z"/>
<path d="M1374 3148 c3 -7 9 -21 12 -30 8 -23 24 -23 24 0 0 9 -9 23 -21 30
-18 11 -20 11 -15 0z"/>
<path d="M1420 3060 c0 -5 10 -25 23 -44 12 -19 37 -60 56 -90 18 -31 34 -56
35 -56 1 0 2 11 1 25 0 13 -9 35 -20 47 -11 13 -19 26 -17 31 1 4 -1 6 -5 6
-21 -3 -24 3 -12 18 12 15 12 16 -5 10 -16 -6 -17 -4 -12 20 5 21 4 24 -4 13
-8 -13 -10 -13 -10 1 0 9 -7 19 -15 23 -8 3 -15 1 -15 -4z"/>
<path d="M1552 2849 c2 -6 8 -10 13 -10 5 0 11 4 13 10 2 6 -4 11 -13 11 -9 0
-15 -5 -13 -11z"/>
<path d="M1670 2851 c0 -5 7 -15 17 -22 15 -13 15 -12 4 9 -12 23 -21 28 -21
13z"/>
<path d="M1606 2791 c-3 -5 1 -11 9 -15 8 -3 15 -1 15 4 0 13 -18 22 -24 11z"/>
<path d="M1778 2704 c13 -25 42 -50 42 -37 0 5 -12 20 -26 34 -24 21 -26 22
-16 3z"/>
<path d="M1679 2675 c11 -22 33 -56 50 -75 l31 -35 -21 40 c-11 22 -33 56 -49
75 l-30 35 19 -40z"/>
<path d="M1825 2640 c3 -5 8 -10 11 -10 2 0 4 5 4 10 0 6 -5 10 -11 10 -5 0
-7 -4 -4 -10z"/>
<path d="M1780 2532 c0 -5 7 -15 15 -22 8 -7 15 -8 15 -2 0 5 -7 15 -15 22 -8
7 -15 8 -15 2z"/>
<path d="M1831 2451 c14 -22 56 -50 44 -29 -14 23 -38 48 -47 48 -4 0 -3 -8 3
-19z"/>
<path d="M1952 2310 c7 -11 17 -20 22 -20 5 0 1 9 -9 20 -10 11 -20 20 -22 20
-2 0 2 -9 9 -20z"/>
<path d="M2000 2265 c7 -8 17 -15 22 -15 6 0 5 7 -2 15 -7 8 -17 15 -22 15 -6
0 -5 -7 2 -15z"/>
<path d="M2040 2228 c0 -9 5 -20 11 -23 17 -11 20 0 4 21 -13 17 -14 17 -15 2z"/>
<path d="M2210 2174 c0 -11 29 -34 34 -26 2 4 -4 13 -15 20 -10 7 -19 10 -19
6z"/>
<path d="M8035 2147 c-4 -10 -5 -21 -1 -24 10 -10 18 4 13 24 -4 17 -4 17 -12
0z"/>
<path d="M7990 2090 c0 -5 5 -10 11 -10 5 0 7 5 4 10 -3 6 -8 10 -11 10 -2 0
-4 -4 -4 -10z"/>
<path d="M2220 1941 c0 -5 12 -17 28 -26 l27 -18 -24 27 c-26 28 -31 31 -31
17z"/>
<path d="M8093 1870 c-29 -28 -53 -54 -53 -58 0 -3 25 18 55 48 51 50 59 60
53 60 -2 0 -27 -23 -55 -50z"/>
<path d="M2465 1870 c3 -5 11 -10 16 -10 6 0 7 5 4 10 -3 6 -11 10 -16 10 -6
0 -7 -4 -4 -10z"/>
<path d="M2450 1769 c69 -66 235 -189 255 -189 3 0 5 6 5 13 0 7 -37 35 -82
63 -45 27 -94 60 -108 74 -49 48 -137 120 -146 120 -5 0 29 -37 76 -81z"/>
<path d="M2520 1835 c0 -6 50 -55 56 -55 2 0 1 6 -2 14 -6 15 -54 51 -54 41z"/>
<path d="M8640 1771 c0 -5 5 -13 10 -16 6 -3 10 -2 10 4 0 5 -4 13 -10 16 -5
3 -10 2 -10 -4z"/>
<path d="M7563 1763 c-15 -5 -17 -23 -4 -23 5 0 11 7 15 15 3 8 4 15 3 14 -1
0 -8 -3 -14 -6z"/>
<path d="M7970 1759 c0 -5 5 -7 10 -4 6 3 10 8 10 11 0 2 -4 4 -10 4 -5 0 -10
-5 -10 -11z"/>
<path d="M2630 1740 c20 -13 33 -13 25 0 -3 6 -14 10 -23 10 -15 0 -15 -2 -2
-10z"/>
<path d="M7510 1719 c0 -5 5 -7 10 -4 6 3 10 8 10 11 0 2 -4 4 -10 4 -5 0 -10
-5 -10 -11z"/>
<path d="M7480 1709 c0 -5 5 -7 10 -4 6 3 10 8 10 11 0 2 -4 4 -10 4 -5 0 -10
-5 -10 -11z"/>
<path d="M7430 1684 c0 -9 5 -14 12 -12 18 6 21 28 4 28 -9 0 -16 -7 -16 -16z"/>
<path d="M7837 1659 c-16 -18 -33 -29 -42 -26 -9 4 -12 1 -8 -9 3 -7 8 -14 12
-14 10 0 81 64 81 73 0 15 -17 6 -43 -24z"/>
<path d="M7695 1554 c-66 -61 -57 -63 16 -2 26 21 52 38 58 38 7 0 9 5 6 10
-10 16 -17 12 -80 -46z"/>
<path d="M2880 1580 c0 -8 24 -20 41 -20 6 0 8 4 5 9 -8 12 -46 21 -46 11z"/>
<path d="M7650 1565 c-11 -13 -10 -14 4 -9 9 3 16 10 16 15 0 13 -6 11 -20 -6z"/>
<path d="M7605 1540 c-3 -5 1 -10 10 -10 9 0 13 5 10 10 -3 6 -8 10 -10 10 -2
0 -7 -4 -10 -10z"/>
<path d="M2820 1510 c0 -5 7 -10 16 -10 8 0 12 5 9 10 -3 6 -10 10 -16 10 -5
0 -9 -4 -9 -10z"/>
<path d="M7507 1470 c-14 -11 -30 -20 -37 -20 -6 0 -8 -5 -4 -12 5 -8 2 -9 -9
-5 -10 3 -17 2 -17 -3 0 -6 6 -10 14 -10 8 0 16 -6 18 -12 4 -10 14 -8 42 7
40 21 76 55 59 55 -6 0 -16 -7 -23 -15 -14 -17 -40 -20 -40 -6 0 5 9 13 20 16
11 3 20 11 20 16 0 14 -15 11 -43 -11z"/>
<path d="M2877 1469 c7 -7 15 -10 18 -7 3 3 -2 9 -12 12 -14 6 -15 5 -6 -5z"/>
<path d="M3215 1470 c3 -5 8 -10 11 -10 2 0 4 5 4 10 0 6 -5 10 -11 10 -5 0
-7 -4 -4 -10z"/>
<path d="M2920 1439 c0 -5 5 -7 10 -4 6 3 10 8 10 11 0 2 -4 4 -10 4 -5 0 -10
-5 -10 -11z"/>
<path d="M3160 1410 c0 -5 5 -10 10 -10 6 0 10 5 10 10 0 6 -4 10 -10 10 -5 0
-10 -4 -10 -10z"/>
<path d="M7410 1370 c-33 -26 -128 -70 -151 -70 -11 0 -19 -4 -19 -8 0 -5 -18
-14 -40 -21 -22 -6 -48 -20 -57 -30 -10 -10 -34 -21 -55 -25 -20 -4 -39 -13
-42 -21 -3 -8 -16 -15 -29 -15 -13 0 -50 -13 -82 -30 -32 -16 -69 -30 -81 -30
-13 0 -25 -4 -28 -9 -4 -5 -25 -12 -49 -16 -23 -4 -48 -12 -55 -18 -8 -6 -32
-13 -55 -17 -31 -4 -41 -10 -39 -21 1 -10 -7 -19 -20 -22 -12 -4 -19 -9 -16
-12 5 -5 162 48 223 75 11 5 36 13 55 19 65 18 125 42 141 57 8 8 22 14 30 14
8 0 23 7 33 15 11 8 28 15 38 15 10 0 18 4 18 9 0 5 10 12 23 16 31 8 131 58
135 68 2 4 10 7 17 7 14 0 133 64 150 81 18 18 -20 9 -45 -11z"/>
<path d="M8155 1370 c-3 -5 -2 -10 4 -10 5 0 13 5 16 10 3 6 2 10 -4 10 -5 0
-13 -4 -16 -10z"/>
<path d="M3646 1314 c-9 -24 -7 -28 9 -14 17 14 20 30 6 30 -5 0 -12 -7 -15
-16z"/>
<path d="M8175 1320 c-4 -6 -23 -22 -43 -35 -47 -30 -117 -93 -112 -99 3 -2
41 25 84 60 96 77 104 84 89 84 -7 0 -15 -5 -18 -10z"/>
<path d="M3143 1303 c9 -2 17 -9 17 -14 0 -5 4 -9 10 -9 5 0 7 7 4 15 -4 8
-16 14 -28 14 -16 -1 -17 -2 -3 -6z"/>
<path d="M7973 1226 c-17 -11 -55 -42 -85 -67 -63 -55 -201 -139 -324 -198
-49 -23 -98 -48 -109 -54 -60 -34 -219 -112 -280 -138 -38 -17 -79 -34 -90
-39 -11 -4 -72 -27 -135 -50 -63 -23 -131 -48 -150 -55 -29 -11 -173 -56 -257
-80 -28 -8 -30 -25 -4 -25 31 0 367 99 451 133 14 5 36 14 50 20 14 5 33 13
42 18 23 12 31 11 23 -1 -3 -5 -3 -10 0 -10 21 0 248 114 346 173 70 43 182
97 199 97 16 0 123 70 178 116 67 56 186 174 181 178 -2 2 -18 -6 -36 -18z"/>
<path d="M3456 1151 c5 -5 23 -12 39 -16 l30 -6 -25 15 c-28 17 -60 22 -44 7z"/>
<path d="M6070 1150 c0 -5 5 -10 10 -10 6 0 10 5 10 10 0 6 -4 10 -10 10 -5 0
-10 -4 -10 -10z"/>
<path d="M3496 1082 c-9 -16 234 -97 339 -113 38 -6 106 -24 150 -39 44 -15
123 -35 175 -44 52 -10 113 -22 135 -27 59 -14 235 -39 350 -49 55 -5 109 -12
120 -15 91 -26 672 -20 895 10 63 9 169 22 235 30 138 16 325 58 283 63 -15 2
-60 -2 -100 -8 -40 -7 -107 -16 -148 -20 -41 -5 -120 -16 -175 -24 -55 -9
-149 -17 -210 -17 -70 -1 -97 -4 -75 -8 73 -15 -113 -23 -385 -17 -316 6 -376
9 -393 19 -6 5 -57 15 -112 23 -180 26 -294 44 -335 53 -22 5 -71 16 -110 25
-38 8 -108 29 -155 45 -47 17 -97 31 -112 31 -15 0 -45 9 -67 21 -43 22 -99
28 -143 16 -17 -4 -28 -3 -28 3 0 5 5 10 11 10 5 0 8 4 4 10 -3 5 -12 7 -20 3
-9 -3 -21 -1 -28 5 -16 13 -95 24 -101 14z"/>
<path d="M4535 1080 c3 -5 8 -10 11 -10 2 0 4 5 4 10 0 6 -5 10 -11 10 -5 0
-7 -4 -4 -10z"/>
<path d="M4686 1061 c-19 -7 -19 -8 2 -13 15 -4 22 -2 22 8 0 8 -1 14 -2 13
-2 0 -12 -4 -22 -8z"/>
<path d="M6524 984 c-18 -14 -18 -15 6 -8 14 3 32 10 40 15 12 7 11 8 -6 9
-11 0 -29 -7 -40 -16z"/>
<path d="M6415 963 c-47 -5 -189 -45 -200 -56 -15 -14 78 1 170 28 44 13 89
26 100 28 24 6 -26 6 -70 0z"/>
<path d="M7555 892 c-27 -15 -54 -30 -60 -35 -5 -4 -19 -15 -30 -23 -21 -17
106 50 140 73 32 22 4 13 -50 -15z"/>
<path d="M6268 847 c-27 -6 -48 -15 -48 -20 0 -10 22 -6 105 17 38 11 43 14
20 14 -16 0 -51 -5 -77 -11z"/>
<path d="M6090 805 c-54 -13 -55 -13 -15 -14 22 0 51 6 65 14 30 17 23 17 -50
0z"/>
<path d="M4338 783 c6 -2 18 -2 25 0 6 3 1 5 -13 5 -14 0 -19 -2 -12 -5z"/>
<path d="M4384 782 c7 -12 64 -14 71 -2 4 6 -10 10 -35 10 -23 0 -39 -4 -36
-8z"/>
<path d="M4528 763 c6 -2 18 -2 25 0 6 3 1 5 -13 5 -14 0 -19 -2 -12 -5z"/>
<path d="M7003 626 c-40 -19 -108 -49 -153 -67 -44 -17 -79 -34 -76 -36 5 -5
272 99 316 123 22 12 23 13 5 13 -11 0 -52 -15 -92 -33z"/>
<path d="M3602 548 c-17 -17 -15 -31 4 -24 9 4 24 0 34 -9 29 -26 161 -67 194
-61 28 6 29 5 11 -8 -18 -13 -18 -14 3 -20 12 -4 41 -9 65 -12 23 -2 74 -11
112 -19 39 -9 95 -21 125 -26 30 -6 83 -18 117 -26 83 -19 104 -10 28 12 -33
9 -100 31 -150 47 -49 17 -121 39 -160 49 -38 10 -95 25 -125 34 -30 9 -68 20
-85 25 -91 26 -111 33 -119 41 -14 13 -40 11 -54 -3z"/>
<path d="M6430 515 c-8 -2 -61 -12 -117 -22 -57 -10 -103 -21 -103 -25 0 -5 6
-8 13 -9 28 -2 93 3 101 8 5 4 24 7 42 9 38 3 130 42 99 42 -11 0 -27 -2 -35
-3z"/>
<path d="M6665 497 c-73 -24 -106 -39 -101 -44 4 -5 152 44 175 57 27 16 -7
10 -74 -13z"/>
<path d="M4550 428 c0 -4 14 -8 30 -8 17 0 30 2 30 4 0 2 -13 6 -30 8 -16 3
-30 1 -30 -4z"/>
<path d="M6028 433 c6 -2 18 -2 25 0 6 3 1 5 -13 5 -14 0 -19 -2 -12 -5z"/>
<path d="M6453 429 c-18 -5 -33 -12 -33 -14 0 -8 53 6 65 16 10 10 11 10 -32
-2z"/>
<path d="M5915 420 c-3 -5 3 -10 14 -10 12 0 21 5 21 10 0 6 -6 10 -14 10 -8
0 -18 -4 -21 -10z"/>
<path d="M6078 423 c6 -2 18 -2 25 0 6 3 1 5 -13 5 -14 0 -19 -2 -12 -5z"/>
</g>
</svg>
